G04 MADE WITH FRITZING*
G04 WWW.FRITZING.ORG*
G04 DOUBLE SIDED*
G04 HOLES PLATED*
G04 CONTOUR ON CENTER OF CONTOUR VECTOR*
%ASAXBY*%
%FSLAX23Y23*%
%MOIN*%
%OFA0B0*%
%SFA1.0B1.0*%
%ADD10R,1.091190X1.314330X1.075190X1.298330*%
%ADD11C,0.008000*%
%ADD12R,0.001000X0.001000*%
%LNSILK0*%
G90*
G70*
G54D11*
X4Y1310D02*
X1087Y1310D01*
X1087Y4D01*
X4Y4D01*
X4Y1310D01*
D02*
G54D12*
X592Y1146D02*
X598Y1146D01*
X591Y1145D02*
X599Y1145D01*
X590Y1144D02*
X600Y1144D01*
X590Y1143D02*
X600Y1143D01*
X659Y1143D02*
X661Y1143D01*
X920Y1143D02*
X922Y1143D01*
X590Y1142D02*
X600Y1142D01*
X657Y1142D02*
X662Y1142D01*
X919Y1142D02*
X923Y1142D01*
X590Y1141D02*
X600Y1141D01*
X657Y1141D02*
X663Y1141D01*
X918Y1141D02*
X924Y1141D01*
X590Y1140D02*
X600Y1140D01*
X657Y1140D02*
X663Y1140D01*
X918Y1140D02*
X924Y1140D01*
X590Y1139D02*
X600Y1139D01*
X657Y1139D02*
X663Y1139D01*
X918Y1139D02*
X924Y1139D01*
X591Y1138D02*
X599Y1138D01*
X657Y1138D02*
X663Y1138D01*
X918Y1138D02*
X924Y1138D01*
X591Y1137D02*
X598Y1137D01*
X657Y1137D02*
X663Y1137D01*
X918Y1137D02*
X924Y1137D01*
X657Y1136D02*
X663Y1136D01*
X918Y1136D02*
X924Y1136D01*
X657Y1135D02*
X663Y1135D01*
X918Y1135D02*
X924Y1135D01*
X657Y1134D02*
X663Y1134D01*
X918Y1134D02*
X924Y1134D01*
X657Y1133D02*
X663Y1133D01*
X918Y1133D02*
X924Y1133D01*
X657Y1132D02*
X663Y1132D01*
X918Y1132D02*
X924Y1132D01*
X657Y1131D02*
X663Y1131D01*
X918Y1131D02*
X924Y1131D01*
X657Y1130D02*
X663Y1130D01*
X918Y1130D02*
X924Y1130D01*
X485Y1129D02*
X492Y1129D01*
X501Y1129D02*
X504Y1129D01*
X537Y1129D02*
X545Y1129D01*
X554Y1129D02*
X557Y1129D01*
X657Y1129D02*
X663Y1129D01*
X918Y1129D02*
X924Y1129D01*
X179Y1128D02*
X181Y1128D01*
X190Y1128D02*
X190Y1128D01*
X221Y1128D02*
X233Y1128D01*
X265Y1128D02*
X281Y1128D01*
X376Y1128D02*
X383Y1128D01*
X398Y1128D02*
X399Y1128D01*
X431Y1128D02*
X442Y1128D01*
X483Y1128D02*
X494Y1128D01*
X500Y1128D02*
X505Y1128D01*
X535Y1128D02*
X547Y1128D01*
X553Y1128D02*
X558Y1128D01*
X593Y1128D02*
X604Y1128D01*
X634Y1128D02*
X635Y1128D01*
X657Y1128D02*
X663Y1128D01*
X702Y1128D02*
X704Y1128D01*
X712Y1128D02*
X713Y1128D01*
X735Y1128D02*
X736Y1128D01*
X764Y1128D02*
X764Y1128D01*
X840Y1128D02*
X840Y1128D01*
X868Y1128D02*
X869Y1128D01*
X901Y1128D02*
X908Y1128D01*
X918Y1128D02*
X924Y1128D01*
X163Y1127D02*
X169Y1127D01*
X176Y1127D02*
X184Y1127D01*
X188Y1127D02*
X192Y1127D01*
X218Y1127D02*
X236Y1127D01*
X263Y1127D02*
X285Y1127D01*
X373Y1127D02*
X386Y1127D01*
X396Y1127D02*
X400Y1127D01*
X427Y1127D02*
X445Y1127D01*
X481Y1127D02*
X496Y1127D01*
X500Y1127D02*
X506Y1127D01*
X533Y1127D02*
X548Y1127D01*
X552Y1127D02*
X558Y1127D01*
X591Y1127D02*
X606Y1127D01*
X633Y1127D02*
X637Y1127D01*
X657Y1127D02*
X663Y1127D01*
X685Y1127D02*
X692Y1127D01*
X699Y1127D02*
X707Y1127D01*
X710Y1127D02*
X715Y1127D01*
X733Y1127D02*
X738Y1127D01*
X762Y1127D02*
X766Y1127D01*
X838Y1127D02*
X842Y1127D01*
X867Y1127D02*
X871Y1127D01*
X898Y1127D02*
X912Y1127D01*
X918Y1127D02*
X924Y1127D01*
X161Y1126D02*
X171Y1126D01*
X175Y1126D02*
X185Y1126D01*
X187Y1126D02*
X193Y1126D01*
X217Y1126D02*
X238Y1126D01*
X262Y1126D02*
X286Y1126D01*
X371Y1126D02*
X388Y1126D01*
X396Y1126D02*
X401Y1126D01*
X426Y1126D02*
X447Y1126D01*
X480Y1126D02*
X497Y1126D01*
X500Y1126D02*
X506Y1126D01*
X532Y1126D02*
X549Y1126D01*
X552Y1126D02*
X558Y1126D01*
X590Y1126D02*
X607Y1126D01*
X632Y1126D02*
X638Y1126D01*
X657Y1126D02*
X663Y1126D01*
X683Y1126D02*
X694Y1126D01*
X698Y1126D02*
X708Y1126D01*
X710Y1126D02*
X715Y1126D01*
X733Y1126D02*
X738Y1126D01*
X761Y1126D02*
X766Y1126D01*
X837Y1126D02*
X843Y1126D01*
X866Y1126D02*
X871Y1126D01*
X896Y1126D02*
X914Y1126D01*
X918Y1126D02*
X924Y1126D01*
X160Y1125D02*
X172Y1125D01*
X174Y1125D02*
X193Y1125D01*
X216Y1125D02*
X239Y1125D01*
X262Y1125D02*
X288Y1125D01*
X370Y1125D02*
X389Y1125D01*
X395Y1125D02*
X401Y1125D01*
X425Y1125D02*
X448Y1125D01*
X479Y1125D02*
X498Y1125D01*
X500Y1125D02*
X506Y1125D01*
X531Y1125D02*
X550Y1125D01*
X552Y1125D02*
X558Y1125D01*
X590Y1125D02*
X607Y1125D01*
X632Y1125D02*
X639Y1125D01*
X657Y1125D02*
X663Y1125D01*
X682Y1125D02*
X695Y1125D01*
X697Y1125D02*
X716Y1125D01*
X732Y1125D02*
X739Y1125D01*
X761Y1125D02*
X767Y1125D01*
X837Y1125D02*
X843Y1125D01*
X866Y1125D02*
X872Y1125D01*
X895Y1125D02*
X915Y1125D01*
X918Y1125D02*
X924Y1125D01*
X159Y1124D02*
X193Y1124D01*
X214Y1124D02*
X240Y1124D01*
X262Y1124D02*
X289Y1124D01*
X369Y1124D02*
X391Y1124D01*
X395Y1124D02*
X402Y1124D01*
X423Y1124D02*
X449Y1124D01*
X477Y1124D02*
X506Y1124D01*
X530Y1124D02*
X558Y1124D01*
X590Y1124D02*
X607Y1124D01*
X632Y1124D02*
X640Y1124D01*
X657Y1124D02*
X663Y1124D01*
X682Y1124D02*
X716Y1124D01*
X732Y1124D02*
X739Y1124D01*
X761Y1124D02*
X767Y1124D01*
X837Y1124D02*
X843Y1124D01*
X866Y1124D02*
X872Y1124D01*
X894Y1124D02*
X916Y1124D01*
X918Y1124D02*
X924Y1124D01*
X158Y1123D02*
X193Y1123D01*
X213Y1123D02*
X241Y1123D01*
X262Y1123D02*
X290Y1123D01*
X369Y1123D02*
X393Y1123D01*
X395Y1123D02*
X402Y1123D01*
X422Y1123D02*
X450Y1123D01*
X476Y1123D02*
X506Y1123D01*
X529Y1123D02*
X558Y1123D01*
X590Y1123D02*
X607Y1123D01*
X632Y1123D02*
X641Y1123D01*
X657Y1123D02*
X663Y1123D01*
X681Y1123D02*
X716Y1123D01*
X732Y1123D02*
X739Y1123D01*
X761Y1123D02*
X767Y1123D01*
X837Y1123D02*
X843Y1123D01*
X866Y1123D02*
X872Y1123D01*
X893Y1123D02*
X924Y1123D01*
X158Y1122D02*
X193Y1122D01*
X212Y1122D02*
X242Y1122D01*
X263Y1122D02*
X291Y1122D01*
X368Y1122D02*
X402Y1122D01*
X421Y1122D02*
X451Y1122D01*
X475Y1122D02*
X486Y1122D01*
X491Y1122D02*
X506Y1122D01*
X528Y1122D02*
X538Y1122D01*
X543Y1122D02*
X558Y1122D01*
X590Y1122D02*
X606Y1122D01*
X633Y1122D02*
X643Y1122D01*
X657Y1122D02*
X663Y1122D01*
X681Y1122D02*
X716Y1122D01*
X732Y1122D02*
X739Y1122D01*
X761Y1122D02*
X767Y1122D01*
X837Y1122D02*
X843Y1122D01*
X866Y1122D02*
X872Y1122D01*
X892Y1122D02*
X924Y1122D01*
X158Y1121D02*
X193Y1121D01*
X212Y1121D02*
X243Y1121D01*
X265Y1121D02*
X292Y1121D01*
X368Y1121D02*
X402Y1121D01*
X421Y1121D02*
X452Y1121D01*
X474Y1121D02*
X484Y1121D01*
X493Y1121D02*
X506Y1121D01*
X526Y1121D02*
X537Y1121D01*
X545Y1121D02*
X558Y1121D01*
X590Y1121D02*
X604Y1121D01*
X634Y1121D02*
X644Y1121D01*
X657Y1121D02*
X663Y1121D01*
X680Y1121D02*
X716Y1121D01*
X732Y1121D02*
X739Y1121D01*
X761Y1121D02*
X767Y1121D01*
X837Y1121D02*
X843Y1121D01*
X866Y1121D02*
X872Y1121D01*
X891Y1121D02*
X924Y1121D01*
X158Y1120D02*
X164Y1120D01*
X168Y1120D02*
X178Y1120D01*
X182Y1120D02*
X193Y1120D01*
X211Y1120D02*
X220Y1120D01*
X235Y1120D02*
X243Y1120D01*
X283Y1120D02*
X293Y1120D01*
X367Y1120D02*
X375Y1120D01*
X385Y1120D02*
X402Y1120D01*
X420Y1120D02*
X429Y1120D01*
X444Y1120D02*
X452Y1120D01*
X473Y1120D02*
X483Y1120D01*
X494Y1120D02*
X506Y1120D01*
X526Y1120D02*
X535Y1120D01*
X546Y1120D02*
X558Y1120D01*
X590Y1120D02*
X596Y1120D01*
X635Y1120D02*
X645Y1120D01*
X657Y1120D02*
X663Y1120D01*
X680Y1120D02*
X687Y1120D01*
X691Y1120D02*
X701Y1120D01*
X705Y1120D02*
X716Y1120D01*
X732Y1120D02*
X739Y1120D01*
X761Y1120D02*
X767Y1120D01*
X837Y1120D02*
X843Y1120D01*
X866Y1120D02*
X872Y1120D01*
X890Y1120D02*
X899Y1120D01*
X910Y1120D02*
X924Y1120D01*
X158Y1119D02*
X164Y1119D01*
X169Y1119D02*
X178Y1119D01*
X183Y1119D02*
X193Y1119D01*
X211Y1119D02*
X218Y1119D01*
X236Y1119D02*
X244Y1119D01*
X284Y1119D02*
X294Y1119D01*
X367Y1119D02*
X374Y1119D01*
X386Y1119D02*
X402Y1119D01*
X420Y1119D02*
X427Y1119D01*
X445Y1119D02*
X453Y1119D01*
X473Y1119D02*
X482Y1119D01*
X495Y1119D02*
X506Y1119D01*
X525Y1119D02*
X534Y1119D01*
X547Y1119D02*
X558Y1119D01*
X590Y1119D02*
X596Y1119D01*
X636Y1119D02*
X646Y1119D01*
X657Y1119D02*
X663Y1119D01*
X680Y1119D02*
X686Y1119D01*
X692Y1119D02*
X701Y1119D01*
X706Y1119D02*
X716Y1119D01*
X732Y1119D02*
X739Y1119D01*
X761Y1119D02*
X767Y1119D01*
X837Y1119D02*
X843Y1119D01*
X865Y1119D02*
X872Y1119D01*
X890Y1119D02*
X898Y1119D01*
X911Y1119D02*
X924Y1119D01*
X158Y1118D02*
X164Y1118D01*
X170Y1118D02*
X178Y1118D01*
X185Y1118D02*
X193Y1118D01*
X210Y1118D02*
X217Y1118D01*
X237Y1118D02*
X244Y1118D01*
X286Y1118D02*
X295Y1118D01*
X367Y1118D02*
X373Y1118D01*
X388Y1118D02*
X402Y1118D01*
X419Y1118D02*
X427Y1118D01*
X446Y1118D02*
X453Y1118D01*
X472Y1118D02*
X481Y1118D01*
X496Y1118D02*
X506Y1118D01*
X524Y1118D02*
X533Y1118D01*
X548Y1118D02*
X558Y1118D01*
X590Y1118D02*
X596Y1118D01*
X637Y1118D02*
X647Y1118D01*
X657Y1118D02*
X663Y1118D01*
X680Y1118D02*
X686Y1118D01*
X693Y1118D02*
X701Y1118D01*
X707Y1118D02*
X716Y1118D01*
X732Y1118D02*
X739Y1118D01*
X761Y1118D02*
X767Y1118D01*
X837Y1118D02*
X844Y1118D01*
X865Y1118D02*
X872Y1118D01*
X890Y1118D02*
X897Y1118D01*
X913Y1118D02*
X924Y1118D01*
X158Y1117D02*
X164Y1117D01*
X171Y1117D02*
X178Y1117D01*
X186Y1117D02*
X193Y1117D01*
X210Y1117D02*
X217Y1117D01*
X238Y1117D02*
X245Y1117D01*
X287Y1117D02*
X296Y1117D01*
X367Y1117D02*
X373Y1117D01*
X389Y1117D02*
X402Y1117D01*
X419Y1117D02*
X426Y1117D01*
X447Y1117D02*
X454Y1117D01*
X472Y1117D02*
X480Y1117D01*
X497Y1117D02*
X506Y1117D01*
X524Y1117D02*
X532Y1117D01*
X549Y1117D02*
X558Y1117D01*
X590Y1117D02*
X596Y1117D01*
X638Y1117D02*
X648Y1117D01*
X657Y1117D02*
X663Y1117D01*
X680Y1117D02*
X686Y1117D01*
X694Y1117D02*
X701Y1117D01*
X708Y1117D02*
X716Y1117D01*
X732Y1117D02*
X739Y1117D01*
X761Y1117D02*
X767Y1117D01*
X837Y1117D02*
X844Y1117D01*
X865Y1117D02*
X872Y1117D01*
X889Y1117D02*
X896Y1117D01*
X914Y1117D02*
X924Y1117D01*
X158Y1116D02*
X164Y1116D01*
X172Y1116D02*
X178Y1116D01*
X187Y1116D02*
X193Y1116D01*
X210Y1116D02*
X216Y1116D01*
X238Y1116D02*
X245Y1116D01*
X288Y1116D02*
X296Y1116D01*
X367Y1116D02*
X373Y1116D01*
X391Y1116D02*
X402Y1116D01*
X419Y1116D02*
X425Y1116D01*
X447Y1116D02*
X454Y1116D01*
X471Y1116D02*
X479Y1116D01*
X498Y1116D02*
X506Y1116D01*
X524Y1116D02*
X531Y1116D01*
X550Y1116D02*
X558Y1116D01*
X590Y1116D02*
X596Y1116D01*
X639Y1116D02*
X650Y1116D01*
X657Y1116D02*
X663Y1116D01*
X680Y1116D02*
X686Y1116D01*
X694Y1116D02*
X701Y1116D01*
X709Y1116D02*
X716Y1116D01*
X732Y1116D02*
X739Y1116D01*
X761Y1116D02*
X767Y1116D01*
X838Y1116D02*
X845Y1116D01*
X864Y1116D02*
X871Y1116D01*
X889Y1116D02*
X896Y1116D01*
X915Y1116D02*
X924Y1116D01*
X158Y1115D02*
X164Y1115D01*
X172Y1115D02*
X178Y1115D01*
X187Y1115D02*
X193Y1115D01*
X210Y1115D02*
X216Y1115D01*
X238Y1115D02*
X245Y1115D01*
X289Y1115D02*
X297Y1115D01*
X367Y1115D02*
X373Y1115D01*
X393Y1115D02*
X402Y1115D01*
X419Y1115D02*
X425Y1115D01*
X447Y1115D02*
X454Y1115D01*
X471Y1115D02*
X478Y1115D01*
X498Y1115D02*
X506Y1115D01*
X523Y1115D02*
X530Y1115D01*
X551Y1115D02*
X558Y1115D01*
X590Y1115D02*
X596Y1115D01*
X641Y1115D02*
X651Y1115D01*
X657Y1115D02*
X663Y1115D01*
X680Y1115D02*
X686Y1115D01*
X694Y1115D02*
X701Y1115D01*
X709Y1115D02*
X716Y1115D01*
X732Y1115D02*
X739Y1115D01*
X761Y1115D02*
X767Y1115D01*
X838Y1115D02*
X845Y1115D01*
X864Y1115D02*
X871Y1115D01*
X889Y1115D02*
X895Y1115D01*
X916Y1115D02*
X924Y1115D01*
X158Y1114D02*
X164Y1114D01*
X172Y1114D02*
X178Y1114D01*
X187Y1114D02*
X193Y1114D01*
X210Y1114D02*
X216Y1114D01*
X238Y1114D02*
X245Y1114D01*
X290Y1114D02*
X297Y1114D01*
X367Y1114D02*
X373Y1114D01*
X394Y1114D02*
X402Y1114D01*
X419Y1114D02*
X425Y1114D01*
X447Y1114D02*
X454Y1114D01*
X471Y1114D02*
X477Y1114D01*
X499Y1114D02*
X506Y1114D01*
X523Y1114D02*
X530Y1114D01*
X552Y1114D02*
X558Y1114D01*
X590Y1114D02*
X596Y1114D01*
X642Y1114D02*
X652Y1114D01*
X657Y1114D02*
X663Y1114D01*
X680Y1114D02*
X686Y1114D01*
X694Y1114D02*
X701Y1114D01*
X709Y1114D02*
X716Y1114D01*
X732Y1114D02*
X739Y1114D01*
X761Y1114D02*
X767Y1114D01*
X838Y1114D02*
X845Y1114D01*
X863Y1114D02*
X870Y1114D01*
X889Y1114D02*
X895Y1114D01*
X917Y1114D02*
X924Y1114D01*
X158Y1113D02*
X164Y1113D01*
X172Y1113D02*
X178Y1113D01*
X187Y1113D02*
X193Y1113D01*
X210Y1113D02*
X216Y1113D01*
X238Y1113D02*
X245Y1113D01*
X290Y1113D02*
X297Y1113D01*
X367Y1113D02*
X373Y1113D01*
X395Y1113D02*
X402Y1113D01*
X419Y1113D02*
X425Y1113D01*
X447Y1113D02*
X454Y1113D01*
X471Y1113D02*
X477Y1113D01*
X500Y1113D02*
X506Y1113D01*
X523Y1113D02*
X530Y1113D01*
X552Y1113D02*
X558Y1113D01*
X590Y1113D02*
X596Y1113D01*
X643Y1113D02*
X653Y1113D01*
X657Y1113D02*
X663Y1113D01*
X680Y1113D02*
X686Y1113D01*
X694Y1113D02*
X701Y1113D01*
X709Y1113D02*
X716Y1113D01*
X732Y1113D02*
X739Y1113D01*
X761Y1113D02*
X767Y1113D01*
X839Y1113D02*
X846Y1113D01*
X863Y1113D02*
X870Y1113D01*
X889Y1113D02*
X895Y1113D01*
X918Y1113D02*
X924Y1113D01*
X158Y1112D02*
X164Y1112D01*
X172Y1112D02*
X178Y1112D01*
X187Y1112D02*
X193Y1112D01*
X210Y1112D02*
X216Y1112D01*
X238Y1112D02*
X245Y1112D01*
X291Y1112D02*
X297Y1112D01*
X367Y1112D02*
X373Y1112D01*
X395Y1112D02*
X402Y1112D01*
X419Y1112D02*
X425Y1112D01*
X447Y1112D02*
X454Y1112D01*
X471Y1112D02*
X477Y1112D01*
X500Y1112D02*
X506Y1112D01*
X523Y1112D02*
X530Y1112D01*
X552Y1112D02*
X558Y1112D01*
X590Y1112D02*
X596Y1112D01*
X644Y1112D02*
X654Y1112D01*
X657Y1112D02*
X663Y1112D01*
X680Y1112D02*
X686Y1112D01*
X694Y1112D02*
X701Y1112D01*
X709Y1112D02*
X716Y1112D01*
X732Y1112D02*
X739Y1112D01*
X761Y1112D02*
X767Y1112D01*
X839Y1112D02*
X846Y1112D01*
X862Y1112D02*
X869Y1112D01*
X889Y1112D02*
X895Y1112D01*
X918Y1112D02*
X924Y1112D01*
X158Y1111D02*
X164Y1111D01*
X172Y1111D02*
X178Y1111D01*
X187Y1111D02*
X193Y1111D01*
X210Y1111D02*
X216Y1111D01*
X238Y1111D02*
X245Y1111D01*
X291Y1111D02*
X297Y1111D01*
X367Y1111D02*
X373Y1111D01*
X395Y1111D02*
X402Y1111D01*
X419Y1111D02*
X425Y1111D01*
X447Y1111D02*
X454Y1111D01*
X471Y1111D02*
X477Y1111D01*
X500Y1111D02*
X506Y1111D01*
X523Y1111D02*
X530Y1111D01*
X552Y1111D02*
X558Y1111D01*
X590Y1111D02*
X596Y1111D01*
X645Y1111D02*
X663Y1111D01*
X680Y1111D02*
X686Y1111D01*
X694Y1111D02*
X701Y1111D01*
X709Y1111D02*
X716Y1111D01*
X732Y1111D02*
X739Y1111D01*
X761Y1111D02*
X767Y1111D01*
X840Y1111D02*
X847Y1111D01*
X862Y1111D02*
X869Y1111D01*
X889Y1111D02*
X895Y1111D01*
X918Y1111D02*
X924Y1111D01*
X158Y1110D02*
X164Y1110D01*
X172Y1110D02*
X178Y1110D01*
X187Y1110D02*
X193Y1110D01*
X210Y1110D02*
X216Y1110D01*
X238Y1110D02*
X245Y1110D01*
X291Y1110D02*
X297Y1110D01*
X367Y1110D02*
X373Y1110D01*
X395Y1110D02*
X402Y1110D01*
X419Y1110D02*
X425Y1110D01*
X447Y1110D02*
X454Y1110D01*
X471Y1110D02*
X477Y1110D01*
X500Y1110D02*
X506Y1110D01*
X523Y1110D02*
X530Y1110D01*
X552Y1110D02*
X558Y1110D01*
X590Y1110D02*
X596Y1110D01*
X646Y1110D02*
X663Y1110D01*
X680Y1110D02*
X686Y1110D01*
X694Y1110D02*
X701Y1110D01*
X709Y1110D02*
X716Y1110D01*
X732Y1110D02*
X739Y1110D01*
X761Y1110D02*
X767Y1110D01*
X840Y1110D02*
X847Y1110D01*
X862Y1110D02*
X869Y1110D01*
X889Y1110D02*
X895Y1110D01*
X918Y1110D02*
X924Y1110D01*
X158Y1109D02*
X164Y1109D01*
X172Y1109D02*
X178Y1109D01*
X187Y1109D02*
X193Y1109D01*
X210Y1109D02*
X216Y1109D01*
X238Y1109D02*
X245Y1109D01*
X291Y1109D02*
X297Y1109D01*
X327Y1109D02*
X337Y1109D01*
X367Y1109D02*
X373Y1109D01*
X395Y1109D02*
X402Y1109D01*
X419Y1109D02*
X454Y1109D01*
X471Y1109D02*
X477Y1109D01*
X500Y1109D02*
X506Y1109D01*
X523Y1109D02*
X530Y1109D01*
X552Y1109D02*
X558Y1109D01*
X590Y1109D02*
X596Y1109D01*
X647Y1109D02*
X663Y1109D01*
X680Y1109D02*
X686Y1109D01*
X694Y1109D02*
X701Y1109D01*
X709Y1109D02*
X716Y1109D01*
X732Y1109D02*
X739Y1109D01*
X761Y1109D02*
X767Y1109D01*
X841Y1109D02*
X848Y1109D01*
X861Y1109D02*
X868Y1109D01*
X889Y1109D02*
X895Y1109D01*
X918Y1109D02*
X924Y1109D01*
X158Y1108D02*
X164Y1108D01*
X172Y1108D02*
X178Y1108D01*
X187Y1108D02*
X193Y1108D01*
X210Y1108D02*
X216Y1108D01*
X238Y1108D02*
X245Y1108D01*
X291Y1108D02*
X297Y1108D01*
X326Y1108D02*
X338Y1108D01*
X367Y1108D02*
X373Y1108D01*
X395Y1108D02*
X402Y1108D01*
X419Y1108D02*
X454Y1108D01*
X471Y1108D02*
X477Y1108D01*
X500Y1108D02*
X506Y1108D01*
X523Y1108D02*
X530Y1108D01*
X552Y1108D02*
X558Y1108D01*
X590Y1108D02*
X596Y1108D01*
X646Y1108D02*
X663Y1108D01*
X680Y1108D02*
X686Y1108D01*
X694Y1108D02*
X701Y1108D01*
X709Y1108D02*
X716Y1108D01*
X732Y1108D02*
X739Y1108D01*
X761Y1108D02*
X767Y1108D01*
X841Y1108D02*
X848Y1108D01*
X861Y1108D02*
X868Y1108D01*
X889Y1108D02*
X895Y1108D01*
X918Y1108D02*
X924Y1108D01*
X158Y1107D02*
X164Y1107D01*
X172Y1107D02*
X178Y1107D01*
X187Y1107D02*
X193Y1107D01*
X210Y1107D02*
X216Y1107D01*
X238Y1107D02*
X245Y1107D01*
X291Y1107D02*
X297Y1107D01*
X325Y1107D02*
X338Y1107D01*
X367Y1107D02*
X373Y1107D01*
X395Y1107D02*
X402Y1107D01*
X419Y1107D02*
X454Y1107D01*
X471Y1107D02*
X477Y1107D01*
X500Y1107D02*
X506Y1107D01*
X523Y1107D02*
X530Y1107D01*
X552Y1107D02*
X558Y1107D01*
X590Y1107D02*
X596Y1107D01*
X645Y1107D02*
X663Y1107D01*
X680Y1107D02*
X686Y1107D01*
X694Y1107D02*
X701Y1107D01*
X709Y1107D02*
X716Y1107D01*
X732Y1107D02*
X739Y1107D01*
X761Y1107D02*
X767Y1107D01*
X842Y1107D02*
X849Y1107D01*
X860Y1107D02*
X867Y1107D01*
X889Y1107D02*
X895Y1107D01*
X918Y1107D02*
X924Y1107D01*
X158Y1106D02*
X164Y1106D01*
X172Y1106D02*
X178Y1106D01*
X187Y1106D02*
X193Y1106D01*
X210Y1106D02*
X216Y1106D01*
X238Y1106D02*
X245Y1106D01*
X291Y1106D02*
X297Y1106D01*
X325Y1106D02*
X339Y1106D01*
X367Y1106D02*
X373Y1106D01*
X395Y1106D02*
X402Y1106D01*
X419Y1106D02*
X454Y1106D01*
X471Y1106D02*
X477Y1106D01*
X500Y1106D02*
X506Y1106D01*
X523Y1106D02*
X530Y1106D01*
X552Y1106D02*
X558Y1106D01*
X590Y1106D02*
X596Y1106D01*
X644Y1106D02*
X663Y1106D01*
X680Y1106D02*
X686Y1106D01*
X694Y1106D02*
X701Y1106D01*
X709Y1106D02*
X716Y1106D01*
X732Y1106D02*
X739Y1106D01*
X761Y1106D02*
X767Y1106D01*
X842Y1106D02*
X849Y1106D01*
X860Y1106D02*
X867Y1106D01*
X889Y1106D02*
X895Y1106D01*
X918Y1106D02*
X924Y1106D01*
X158Y1105D02*
X164Y1105D01*
X172Y1105D02*
X178Y1105D01*
X187Y1105D02*
X193Y1105D01*
X210Y1105D02*
X216Y1105D01*
X238Y1105D02*
X245Y1105D01*
X291Y1105D02*
X297Y1105D01*
X325Y1105D02*
X339Y1105D01*
X367Y1105D02*
X373Y1105D01*
X395Y1105D02*
X402Y1105D01*
X419Y1105D02*
X454Y1105D01*
X471Y1105D02*
X477Y1105D01*
X500Y1105D02*
X506Y1105D01*
X523Y1105D02*
X530Y1105D01*
X552Y1105D02*
X558Y1105D01*
X590Y1105D02*
X596Y1105D01*
X643Y1105D02*
X663Y1105D01*
X680Y1105D02*
X686Y1105D01*
X694Y1105D02*
X701Y1105D01*
X709Y1105D02*
X716Y1105D01*
X732Y1105D02*
X739Y1105D01*
X761Y1105D02*
X767Y1105D01*
X842Y1105D02*
X849Y1105D01*
X859Y1105D02*
X866Y1105D01*
X889Y1105D02*
X895Y1105D01*
X918Y1105D02*
X924Y1105D01*
X158Y1104D02*
X164Y1104D01*
X172Y1104D02*
X178Y1104D01*
X187Y1104D02*
X193Y1104D01*
X210Y1104D02*
X216Y1104D01*
X238Y1104D02*
X245Y1104D01*
X291Y1104D02*
X297Y1104D01*
X325Y1104D02*
X339Y1104D01*
X367Y1104D02*
X373Y1104D01*
X395Y1104D02*
X402Y1104D01*
X420Y1104D02*
X454Y1104D01*
X471Y1104D02*
X477Y1104D01*
X500Y1104D02*
X506Y1104D01*
X523Y1104D02*
X530Y1104D01*
X552Y1104D02*
X558Y1104D01*
X590Y1104D02*
X596Y1104D01*
X641Y1104D02*
X663Y1104D01*
X680Y1104D02*
X686Y1104D01*
X694Y1104D02*
X701Y1104D01*
X709Y1104D02*
X716Y1104D01*
X732Y1104D02*
X739Y1104D01*
X761Y1104D02*
X767Y1104D01*
X843Y1104D02*
X850Y1104D01*
X859Y1104D02*
X866Y1104D01*
X889Y1104D02*
X895Y1104D01*
X918Y1104D02*
X924Y1104D01*
X158Y1103D02*
X164Y1103D01*
X172Y1103D02*
X178Y1103D01*
X187Y1103D02*
X193Y1103D01*
X210Y1103D02*
X216Y1103D01*
X238Y1103D02*
X245Y1103D01*
X291Y1103D02*
X297Y1103D01*
X325Y1103D02*
X339Y1103D01*
X367Y1103D02*
X373Y1103D01*
X395Y1103D02*
X402Y1103D01*
X421Y1103D02*
X454Y1103D01*
X471Y1103D02*
X477Y1103D01*
X500Y1103D02*
X506Y1103D01*
X523Y1103D02*
X530Y1103D01*
X552Y1103D02*
X558Y1103D01*
X590Y1103D02*
X596Y1103D01*
X640Y1103D02*
X650Y1103D01*
X655Y1103D02*
X663Y1103D01*
X680Y1103D02*
X686Y1103D01*
X694Y1103D02*
X701Y1103D01*
X709Y1103D02*
X716Y1103D01*
X732Y1103D02*
X739Y1103D01*
X761Y1103D02*
X767Y1103D01*
X843Y1103D02*
X850Y1103D01*
X859Y1103D02*
X865Y1103D01*
X889Y1103D02*
X895Y1103D01*
X918Y1103D02*
X924Y1103D01*
X158Y1102D02*
X164Y1102D01*
X172Y1102D02*
X178Y1102D01*
X187Y1102D02*
X193Y1102D01*
X210Y1102D02*
X216Y1102D01*
X238Y1102D02*
X245Y1102D01*
X290Y1102D02*
X297Y1102D01*
X325Y1102D02*
X339Y1102D01*
X367Y1102D02*
X373Y1102D01*
X395Y1102D02*
X402Y1102D01*
X447Y1102D02*
X454Y1102D01*
X471Y1102D02*
X477Y1102D01*
X500Y1102D02*
X506Y1102D01*
X523Y1102D02*
X530Y1102D01*
X552Y1102D02*
X558Y1102D01*
X590Y1102D02*
X596Y1102D01*
X639Y1102D02*
X649Y1102D01*
X656Y1102D02*
X663Y1102D01*
X680Y1102D02*
X686Y1102D01*
X694Y1102D02*
X701Y1102D01*
X709Y1102D02*
X716Y1102D01*
X732Y1102D02*
X739Y1102D01*
X761Y1102D02*
X767Y1102D01*
X844Y1102D02*
X851Y1102D01*
X858Y1102D02*
X865Y1102D01*
X889Y1102D02*
X895Y1102D01*
X918Y1102D02*
X924Y1102D01*
X158Y1101D02*
X164Y1101D01*
X172Y1101D02*
X178Y1101D01*
X187Y1101D02*
X193Y1101D01*
X210Y1101D02*
X216Y1101D01*
X238Y1101D02*
X245Y1101D01*
X290Y1101D02*
X297Y1101D01*
X325Y1101D02*
X339Y1101D01*
X367Y1101D02*
X373Y1101D01*
X395Y1101D02*
X402Y1101D01*
X447Y1101D02*
X454Y1101D01*
X471Y1101D02*
X477Y1101D01*
X499Y1101D02*
X506Y1101D01*
X523Y1101D02*
X530Y1101D01*
X551Y1101D02*
X558Y1101D01*
X590Y1101D02*
X596Y1101D01*
X638Y1101D02*
X648Y1101D01*
X656Y1101D02*
X663Y1101D01*
X680Y1101D02*
X686Y1101D01*
X694Y1101D02*
X701Y1101D01*
X709Y1101D02*
X716Y1101D01*
X732Y1101D02*
X740Y1101D01*
X761Y1101D02*
X767Y1101D01*
X844Y1101D02*
X851Y1101D01*
X858Y1101D02*
X865Y1101D01*
X889Y1101D02*
X895Y1101D01*
X917Y1101D02*
X924Y1101D01*
X158Y1100D02*
X164Y1100D01*
X172Y1100D02*
X178Y1100D01*
X187Y1100D02*
X193Y1100D01*
X210Y1100D02*
X216Y1100D01*
X238Y1100D02*
X245Y1100D01*
X289Y1100D02*
X296Y1100D01*
X325Y1100D02*
X339Y1100D01*
X367Y1100D02*
X373Y1100D01*
X395Y1100D02*
X402Y1100D01*
X447Y1100D02*
X454Y1100D01*
X471Y1100D02*
X478Y1100D01*
X498Y1100D02*
X506Y1100D01*
X523Y1100D02*
X530Y1100D01*
X551Y1100D02*
X558Y1100D01*
X590Y1100D02*
X596Y1100D01*
X637Y1100D02*
X647Y1100D01*
X657Y1100D02*
X663Y1100D01*
X680Y1100D02*
X686Y1100D01*
X694Y1100D02*
X701Y1100D01*
X709Y1100D02*
X716Y1100D01*
X732Y1100D02*
X742Y1100D01*
X761Y1100D02*
X767Y1100D01*
X845Y1100D02*
X852Y1100D01*
X857Y1100D02*
X864Y1100D01*
X889Y1100D02*
X895Y1100D01*
X916Y1100D02*
X924Y1100D01*
X158Y1099D02*
X164Y1099D01*
X172Y1099D02*
X178Y1099D01*
X187Y1099D02*
X193Y1099D01*
X210Y1099D02*
X216Y1099D01*
X238Y1099D02*
X245Y1099D01*
X288Y1099D02*
X296Y1099D01*
X325Y1099D02*
X338Y1099D01*
X367Y1099D02*
X373Y1099D01*
X395Y1099D02*
X402Y1099D01*
X447Y1099D02*
X454Y1099D01*
X471Y1099D02*
X479Y1099D01*
X497Y1099D02*
X506Y1099D01*
X524Y1099D02*
X531Y1099D01*
X550Y1099D02*
X558Y1099D01*
X590Y1099D02*
X596Y1099D01*
X636Y1099D02*
X646Y1099D01*
X657Y1099D02*
X663Y1099D01*
X680Y1099D02*
X686Y1099D01*
X694Y1099D02*
X701Y1099D01*
X709Y1099D02*
X716Y1099D01*
X732Y1099D02*
X743Y1099D01*
X761Y1099D02*
X767Y1099D01*
X845Y1099D02*
X852Y1099D01*
X857Y1099D02*
X864Y1099D01*
X889Y1099D02*
X896Y1099D01*
X915Y1099D02*
X924Y1099D01*
X158Y1098D02*
X164Y1098D01*
X172Y1098D02*
X178Y1098D01*
X187Y1098D02*
X193Y1098D01*
X210Y1098D02*
X217Y1098D01*
X238Y1098D02*
X245Y1098D01*
X286Y1098D02*
X296Y1098D01*
X326Y1098D02*
X338Y1098D01*
X367Y1098D02*
X373Y1098D01*
X395Y1098D02*
X402Y1098D01*
X447Y1098D02*
X454Y1098D01*
X472Y1098D02*
X480Y1098D01*
X496Y1098D02*
X506Y1098D01*
X524Y1098D02*
X532Y1098D01*
X549Y1098D02*
X558Y1098D01*
X590Y1098D02*
X596Y1098D01*
X634Y1098D02*
X645Y1098D01*
X657Y1098D02*
X663Y1098D01*
X680Y1098D02*
X686Y1098D01*
X694Y1098D02*
X701Y1098D01*
X709Y1098D02*
X716Y1098D01*
X732Y1098D02*
X745Y1098D01*
X761Y1098D02*
X767Y1098D01*
X845Y1098D02*
X853Y1098D01*
X856Y1098D02*
X863Y1098D01*
X889Y1098D02*
X896Y1098D01*
X914Y1098D02*
X924Y1098D01*
X158Y1097D02*
X164Y1097D01*
X172Y1097D02*
X178Y1097D01*
X187Y1097D02*
X193Y1097D01*
X210Y1097D02*
X218Y1097D01*
X237Y1097D02*
X244Y1097D01*
X285Y1097D02*
X295Y1097D01*
X327Y1097D02*
X337Y1097D01*
X367Y1097D02*
X373Y1097D01*
X395Y1097D02*
X402Y1097D01*
X446Y1097D02*
X453Y1097D01*
X472Y1097D02*
X481Y1097D01*
X495Y1097D02*
X506Y1097D01*
X524Y1097D02*
X533Y1097D01*
X548Y1097D02*
X558Y1097D01*
X590Y1097D02*
X596Y1097D01*
X633Y1097D02*
X643Y1097D01*
X657Y1097D02*
X663Y1097D01*
X680Y1097D02*
X686Y1097D01*
X694Y1097D02*
X701Y1097D01*
X709Y1097D02*
X716Y1097D01*
X732Y1097D02*
X746Y1097D01*
X760Y1097D02*
X767Y1097D01*
X846Y1097D02*
X863Y1097D01*
X890Y1097D02*
X897Y1097D01*
X912Y1097D02*
X924Y1097D01*
X158Y1096D02*
X164Y1096D01*
X172Y1096D02*
X178Y1096D01*
X187Y1096D02*
X193Y1096D01*
X211Y1096D02*
X219Y1096D01*
X236Y1096D02*
X244Y1096D01*
X284Y1096D02*
X294Y1096D01*
X367Y1096D02*
X373Y1096D01*
X395Y1096D02*
X402Y1096D01*
X445Y1096D02*
X453Y1096D01*
X473Y1096D02*
X482Y1096D01*
X494Y1096D02*
X506Y1096D01*
X525Y1096D02*
X534Y1096D01*
X547Y1096D02*
X558Y1096D01*
X590Y1096D02*
X596Y1096D01*
X632Y1096D02*
X642Y1096D01*
X657Y1096D02*
X663Y1096D01*
X680Y1096D02*
X686Y1096D01*
X694Y1096D02*
X701Y1096D01*
X709Y1096D02*
X716Y1096D01*
X732Y1096D02*
X748Y1096D01*
X760Y1096D02*
X767Y1096D01*
X846Y1096D02*
X862Y1096D01*
X890Y1096D02*
X898Y1096D01*
X911Y1096D02*
X924Y1096D01*
X158Y1095D02*
X164Y1095D01*
X172Y1095D02*
X178Y1095D01*
X187Y1095D02*
X193Y1095D01*
X211Y1095D02*
X220Y1095D01*
X234Y1095D02*
X243Y1095D01*
X283Y1095D02*
X293Y1095D01*
X367Y1095D02*
X373Y1095D01*
X395Y1095D02*
X402Y1095D01*
X443Y1095D02*
X453Y1095D01*
X473Y1095D02*
X483Y1095D01*
X493Y1095D02*
X506Y1095D01*
X526Y1095D02*
X536Y1095D01*
X546Y1095D02*
X558Y1095D01*
X590Y1095D02*
X596Y1095D01*
X631Y1095D02*
X641Y1095D01*
X657Y1095D02*
X663Y1095D01*
X680Y1095D02*
X686Y1095D01*
X694Y1095D02*
X701Y1095D01*
X709Y1095D02*
X716Y1095D01*
X732Y1095D02*
X750Y1095D01*
X759Y1095D02*
X766Y1095D01*
X847Y1095D02*
X862Y1095D01*
X890Y1095D02*
X900Y1095D01*
X910Y1095D02*
X924Y1095D01*
X158Y1094D02*
X164Y1094D01*
X172Y1094D02*
X178Y1094D01*
X187Y1094D02*
X193Y1094D01*
X212Y1094D02*
X243Y1094D01*
X264Y1094D02*
X292Y1094D01*
X367Y1094D02*
X373Y1094D01*
X395Y1094D02*
X402Y1094D01*
X421Y1094D02*
X452Y1094D01*
X474Y1094D02*
X485Y1094D01*
X492Y1094D02*
X506Y1094D01*
X527Y1094D02*
X537Y1094D01*
X545Y1094D02*
X558Y1094D01*
X581Y1094D02*
X605Y1094D01*
X630Y1094D02*
X640Y1094D01*
X657Y1094D02*
X663Y1094D01*
X680Y1094D02*
X686Y1094D01*
X694Y1094D02*
X701Y1094D01*
X709Y1094D02*
X716Y1094D01*
X732Y1094D02*
X766Y1094D01*
X847Y1094D02*
X862Y1094D01*
X891Y1094D02*
X924Y1094D01*
X158Y1093D02*
X164Y1093D01*
X172Y1093D02*
X178Y1093D01*
X187Y1093D02*
X193Y1093D01*
X213Y1093D02*
X242Y1093D01*
X263Y1093D02*
X291Y1093D01*
X367Y1093D02*
X373Y1093D01*
X395Y1093D02*
X402Y1093D01*
X420Y1093D02*
X451Y1093D01*
X475Y1093D02*
X486Y1093D01*
X490Y1093D02*
X506Y1093D01*
X528Y1093D02*
X539Y1093D01*
X543Y1093D02*
X558Y1093D01*
X580Y1093D02*
X606Y1093D01*
X629Y1093D02*
X639Y1093D01*
X657Y1093D02*
X663Y1093D01*
X680Y1093D02*
X686Y1093D01*
X694Y1093D02*
X701Y1093D01*
X709Y1093D02*
X716Y1093D01*
X732Y1093D02*
X766Y1093D01*
X848Y1093D02*
X861Y1093D01*
X892Y1093D02*
X924Y1093D01*
X158Y1092D02*
X164Y1092D01*
X172Y1092D02*
X178Y1092D01*
X187Y1092D02*
X193Y1092D01*
X214Y1092D02*
X241Y1092D01*
X262Y1092D02*
X290Y1092D01*
X367Y1092D02*
X373Y1092D01*
X395Y1092D02*
X402Y1092D01*
X419Y1092D02*
X450Y1092D01*
X477Y1092D02*
X506Y1092D01*
X529Y1092D02*
X558Y1092D01*
X579Y1092D02*
X607Y1092D01*
X628Y1092D02*
X638Y1092D01*
X657Y1092D02*
X663Y1092D01*
X680Y1092D02*
X686Y1092D01*
X694Y1092D02*
X701Y1092D01*
X709Y1092D02*
X716Y1092D01*
X732Y1092D02*
X739Y1092D01*
X742Y1092D02*
X765Y1092D01*
X848Y1092D02*
X861Y1092D01*
X893Y1092D02*
X924Y1092D01*
X158Y1091D02*
X164Y1091D01*
X172Y1091D02*
X178Y1091D01*
X187Y1091D02*
X193Y1091D01*
X215Y1091D02*
X240Y1091D01*
X262Y1091D02*
X289Y1091D01*
X367Y1091D02*
X373Y1091D01*
X395Y1091D02*
X402Y1091D01*
X419Y1091D02*
X449Y1091D01*
X478Y1091D02*
X506Y1091D01*
X530Y1091D02*
X558Y1091D01*
X579Y1091D02*
X607Y1091D01*
X628Y1091D02*
X636Y1091D01*
X657Y1091D02*
X663Y1091D01*
X680Y1091D02*
X686Y1091D01*
X694Y1091D02*
X701Y1091D01*
X709Y1091D02*
X716Y1091D01*
X732Y1091D02*
X739Y1091D01*
X743Y1091D02*
X764Y1091D01*
X849Y1091D02*
X860Y1091D01*
X894Y1091D02*
X916Y1091D01*
X918Y1091D02*
X924Y1091D01*
X158Y1090D02*
X164Y1090D01*
X172Y1090D02*
X178Y1090D01*
X187Y1090D02*
X193Y1090D01*
X216Y1090D02*
X239Y1090D01*
X262Y1090D02*
X287Y1090D01*
X367Y1090D02*
X373Y1090D01*
X395Y1090D02*
X401Y1090D01*
X419Y1090D02*
X448Y1090D01*
X479Y1090D02*
X498Y1090D01*
X500Y1090D02*
X506Y1090D01*
X531Y1090D02*
X550Y1090D01*
X552Y1090D02*
X558Y1090D01*
X579Y1090D02*
X607Y1090D01*
X628Y1090D02*
X635Y1090D01*
X657Y1090D02*
X663Y1090D01*
X680Y1090D02*
X686Y1090D01*
X695Y1090D02*
X701Y1090D01*
X710Y1090D02*
X716Y1090D01*
X732Y1090D02*
X738Y1090D01*
X745Y1090D02*
X763Y1090D01*
X849Y1090D02*
X856Y1090D01*
X895Y1090D02*
X915Y1090D01*
X918Y1090D02*
X924Y1090D01*
X158Y1089D02*
X163Y1089D01*
X172Y1089D02*
X178Y1089D01*
X187Y1089D02*
X193Y1089D01*
X217Y1089D02*
X237Y1089D01*
X263Y1089D02*
X286Y1089D01*
X368Y1089D02*
X373Y1089D01*
X396Y1089D02*
X401Y1089D01*
X419Y1089D02*
X446Y1089D01*
X480Y1089D02*
X497Y1089D01*
X500Y1089D02*
X506Y1089D01*
X532Y1089D02*
X549Y1089D01*
X552Y1089D02*
X558Y1089D01*
X580Y1089D02*
X606Y1089D01*
X628Y1089D02*
X634Y1089D01*
X657Y1089D02*
X662Y1089D01*
X681Y1089D02*
X686Y1089D01*
X695Y1089D02*
X700Y1089D01*
X710Y1089D02*
X715Y1089D01*
X733Y1089D02*
X738Y1089D01*
X746Y1089D02*
X762Y1089D01*
X849Y1089D02*
X856Y1089D01*
X897Y1089D02*
X913Y1089D01*
X918Y1089D02*
X924Y1089D01*
X159Y1088D02*
X162Y1088D01*
X173Y1088D02*
X177Y1088D01*
X188Y1088D02*
X192Y1088D01*
X219Y1088D02*
X236Y1088D01*
X263Y1088D02*
X284Y1088D01*
X368Y1088D02*
X372Y1088D01*
X397Y1088D02*
X400Y1088D01*
X420Y1088D02*
X445Y1088D01*
X481Y1088D02*
X496Y1088D01*
X500Y1088D02*
X506Y1088D01*
X534Y1088D02*
X548Y1088D01*
X552Y1088D02*
X558Y1088D01*
X581Y1088D02*
X606Y1088D01*
X629Y1088D02*
X633Y1088D01*
X658Y1088D02*
X661Y1088D01*
X681Y1088D02*
X685Y1088D01*
X696Y1088D02*
X699Y1088D01*
X711Y1088D02*
X714Y1088D01*
X734Y1088D02*
X737Y1088D01*
X749Y1088D02*
X760Y1088D01*
X850Y1088D02*
X857Y1088D01*
X898Y1088D02*
X911Y1088D01*
X919Y1088D02*
X923Y1088D01*
X483Y1087D02*
X494Y1087D01*
X500Y1087D02*
X506Y1087D01*
X535Y1087D02*
X546Y1087D01*
X552Y1087D02*
X558Y1087D01*
X850Y1087D02*
X857Y1087D01*
X485Y1086D02*
X492Y1086D01*
X500Y1086D02*
X506Y1086D01*
X537Y1086D02*
X544Y1086D01*
X552Y1086D02*
X558Y1086D01*
X851Y1086D02*
X858Y1086D01*
X500Y1085D02*
X506Y1085D01*
X552Y1085D02*
X558Y1085D01*
X851Y1085D02*
X858Y1085D01*
X500Y1084D02*
X506Y1084D01*
X552Y1084D02*
X558Y1084D01*
X852Y1084D02*
X859Y1084D01*
X500Y1083D02*
X506Y1083D01*
X552Y1083D02*
X558Y1083D01*
X852Y1083D02*
X859Y1083D01*
X500Y1082D02*
X506Y1082D01*
X552Y1082D02*
X558Y1082D01*
X852Y1082D02*
X859Y1082D01*
X500Y1081D02*
X506Y1081D01*
X552Y1081D02*
X558Y1081D01*
X853Y1081D02*
X860Y1081D01*
X500Y1080D02*
X506Y1080D01*
X552Y1080D02*
X558Y1080D01*
X853Y1080D02*
X860Y1080D01*
X500Y1079D02*
X506Y1079D01*
X552Y1079D02*
X558Y1079D01*
X854Y1079D02*
X869Y1079D01*
X500Y1078D02*
X506Y1078D01*
X552Y1078D02*
X558Y1078D01*
X854Y1078D02*
X871Y1078D01*
X500Y1077D02*
X506Y1077D01*
X552Y1077D02*
X558Y1077D01*
X855Y1077D02*
X871Y1077D01*
X500Y1076D02*
X506Y1076D01*
X552Y1076D02*
X558Y1076D01*
X855Y1076D02*
X871Y1076D01*
X500Y1075D02*
X506Y1075D01*
X552Y1075D02*
X558Y1075D01*
X856Y1075D02*
X871Y1075D01*
X500Y1074D02*
X506Y1074D01*
X552Y1074D02*
X558Y1074D01*
X856Y1074D02*
X871Y1074D01*
X501Y1073D02*
X505Y1073D01*
X553Y1073D02*
X557Y1073D01*
X857Y1073D02*
X871Y1073D01*
X502Y1072D02*
X504Y1072D01*
X555Y1072D02*
X556Y1072D01*
X858Y1072D02*
X869Y1072D01*
D02*
G04 End of Silk0*
M02*