G04 MADE WITH FRITZING*
G04 WWW.FRITZING.ORG*
G04 DOUBLE SIDED*
G04 HOLES PLATED*
G04 CONTOUR ON CENTER OF CONTOUR VECTOR*
%ASAXBY*%
%FSLAX23Y23*%
%MOIN*%
%OFA0B0*%
%SFA1.0B1.0*%
%ADD10R,1.091190X1.314330X1.075190X1.298330*%
%ADD11C,0.008000*%
%ADD12C,0.010000*%
%ADD13C,0.005000*%
%ADD14R,0.001000X0.001000*%
%LNSILK1*%
G90*
G70*
G54D11*
X4Y1310D02*
X1087Y1310D01*
X1087Y4D01*
X4Y4D01*
X4Y1310D01*
D02*
G54D12*
X945Y935D02*
X945Y35D01*
D02*
X945Y35D02*
X1045Y35D01*
D02*
X1045Y35D02*
X1045Y935D01*
D02*
X1045Y935D02*
X945Y935D01*
G54D13*
D02*
X945Y900D02*
X980Y935D01*
G54D12*
D02*
X45Y935D02*
X45Y35D01*
D02*
X45Y35D02*
X145Y35D01*
D02*
X145Y35D02*
X145Y935D01*
D02*
X145Y935D02*
X45Y935D01*
G54D13*
D02*
X45Y900D02*
X80Y935D01*
G54D14*
X287Y1275D02*
X806Y1275D01*
X287Y1274D02*
X806Y1274D01*
X287Y1273D02*
X806Y1273D01*
X287Y1272D02*
X806Y1272D01*
X287Y1271D02*
X806Y1271D01*
X287Y1270D02*
X806Y1270D01*
X33Y1269D02*
X44Y1269D01*
X65Y1269D02*
X67Y1269D01*
X82Y1269D02*
X84Y1269D01*
X96Y1269D02*
X101Y1269D01*
X112Y1269D02*
X117Y1269D01*
X129Y1269D02*
X141Y1269D01*
X163Y1269D02*
X179Y1269D01*
X195Y1269D02*
X211Y1269D01*
X227Y1269D02*
X243Y1269D01*
X287Y1269D02*
X806Y1269D01*
X32Y1268D02*
X45Y1268D01*
X64Y1268D02*
X67Y1268D01*
X82Y1268D02*
X85Y1268D01*
X96Y1268D02*
X102Y1268D01*
X112Y1268D02*
X117Y1268D01*
X128Y1268D02*
X141Y1268D01*
X162Y1268D02*
X180Y1268D01*
X194Y1268D02*
X213Y1268D01*
X226Y1268D02*
X245Y1268D01*
X287Y1268D02*
X294Y1268D01*
X798Y1268D02*
X806Y1268D01*
X32Y1267D02*
X47Y1267D01*
X64Y1267D02*
X67Y1267D01*
X82Y1267D02*
X85Y1267D01*
X96Y1267D02*
X103Y1267D01*
X111Y1267D02*
X117Y1267D01*
X128Y1267D02*
X141Y1267D01*
X161Y1267D02*
X181Y1267D01*
X193Y1267D02*
X213Y1267D01*
X225Y1267D02*
X245Y1267D01*
X287Y1267D02*
X294Y1267D01*
X799Y1267D02*
X806Y1267D01*
X32Y1266D02*
X47Y1266D01*
X64Y1266D02*
X67Y1266D01*
X82Y1266D02*
X85Y1266D01*
X96Y1266D02*
X103Y1266D01*
X110Y1266D02*
X117Y1266D01*
X129Y1266D02*
X141Y1266D01*
X161Y1266D02*
X181Y1266D01*
X193Y1266D02*
X214Y1266D01*
X225Y1266D02*
X246Y1266D01*
X287Y1266D02*
X294Y1266D01*
X799Y1266D02*
X806Y1266D01*
X36Y1265D02*
X40Y1265D01*
X43Y1265D02*
X48Y1265D01*
X64Y1265D02*
X67Y1265D01*
X82Y1265D02*
X85Y1265D01*
X96Y1265D02*
X104Y1265D01*
X109Y1265D02*
X117Y1265D01*
X137Y1265D02*
X141Y1265D01*
X160Y1265D02*
X164Y1265D01*
X178Y1265D02*
X182Y1265D01*
X193Y1265D02*
X196Y1265D01*
X210Y1265D02*
X214Y1265D01*
X225Y1265D02*
X229Y1265D01*
X242Y1265D02*
X246Y1265D01*
X287Y1265D02*
X294Y1265D01*
X799Y1265D02*
X806Y1265D01*
X36Y1264D02*
X40Y1264D01*
X44Y1264D02*
X48Y1264D01*
X64Y1264D02*
X67Y1264D01*
X82Y1264D02*
X85Y1264D01*
X96Y1264D02*
X105Y1264D01*
X109Y1264D02*
X117Y1264D01*
X137Y1264D02*
X141Y1264D01*
X160Y1264D02*
X164Y1264D01*
X178Y1264D02*
X182Y1264D01*
X193Y1264D02*
X196Y1264D01*
X210Y1264D02*
X214Y1264D01*
X225Y1264D02*
X228Y1264D01*
X242Y1264D02*
X246Y1264D01*
X287Y1264D02*
X294Y1264D01*
X799Y1264D02*
X806Y1264D01*
X36Y1263D02*
X40Y1263D01*
X45Y1263D02*
X49Y1263D01*
X64Y1263D02*
X67Y1263D01*
X82Y1263D02*
X85Y1263D01*
X96Y1263D02*
X105Y1263D01*
X108Y1263D02*
X117Y1263D01*
X137Y1263D02*
X141Y1263D01*
X160Y1263D02*
X164Y1263D01*
X178Y1263D02*
X182Y1263D01*
X193Y1263D02*
X196Y1263D01*
X210Y1263D02*
X214Y1263D01*
X225Y1263D02*
X228Y1263D01*
X242Y1263D02*
X246Y1263D01*
X287Y1263D02*
X294Y1263D01*
X799Y1263D02*
X806Y1263D01*
X36Y1262D02*
X40Y1262D01*
X45Y1262D02*
X49Y1262D01*
X64Y1262D02*
X67Y1262D01*
X82Y1262D02*
X85Y1262D01*
X96Y1262D02*
X100Y1262D01*
X102Y1262D02*
X112Y1262D01*
X114Y1262D02*
X117Y1262D01*
X137Y1262D02*
X141Y1262D01*
X160Y1262D02*
X164Y1262D01*
X178Y1262D02*
X182Y1262D01*
X193Y1262D02*
X196Y1262D01*
X210Y1262D02*
X214Y1262D01*
X225Y1262D02*
X228Y1262D01*
X242Y1262D02*
X246Y1262D01*
X287Y1262D02*
X294Y1262D01*
X799Y1262D02*
X806Y1262D01*
X36Y1261D02*
X40Y1261D01*
X46Y1261D02*
X50Y1261D01*
X64Y1261D02*
X67Y1261D01*
X82Y1261D02*
X85Y1261D01*
X96Y1261D02*
X100Y1261D01*
X102Y1261D02*
X111Y1261D01*
X114Y1261D02*
X117Y1261D01*
X137Y1261D02*
X141Y1261D01*
X160Y1261D02*
X164Y1261D01*
X178Y1261D02*
X182Y1261D01*
X193Y1261D02*
X196Y1261D01*
X210Y1261D02*
X214Y1261D01*
X225Y1261D02*
X228Y1261D01*
X242Y1261D02*
X246Y1261D01*
X287Y1261D02*
X294Y1261D01*
X799Y1261D02*
X806Y1261D01*
X36Y1260D02*
X40Y1260D01*
X46Y1260D02*
X50Y1260D01*
X64Y1260D02*
X67Y1260D01*
X82Y1260D02*
X85Y1260D01*
X96Y1260D02*
X100Y1260D01*
X103Y1260D02*
X110Y1260D01*
X114Y1260D02*
X117Y1260D01*
X137Y1260D02*
X141Y1260D01*
X160Y1260D02*
X164Y1260D01*
X178Y1260D02*
X182Y1260D01*
X193Y1260D02*
X196Y1260D01*
X210Y1260D02*
X214Y1260D01*
X225Y1260D02*
X228Y1260D01*
X242Y1260D02*
X246Y1260D01*
X287Y1260D02*
X294Y1260D01*
X799Y1260D02*
X806Y1260D01*
X36Y1259D02*
X40Y1259D01*
X47Y1259D02*
X51Y1259D01*
X64Y1259D02*
X67Y1259D01*
X82Y1259D02*
X85Y1259D01*
X96Y1259D02*
X100Y1259D01*
X104Y1259D02*
X110Y1259D01*
X114Y1259D02*
X117Y1259D01*
X137Y1259D02*
X141Y1259D01*
X160Y1259D02*
X164Y1259D01*
X178Y1259D02*
X182Y1259D01*
X193Y1259D02*
X196Y1259D01*
X210Y1259D02*
X214Y1259D01*
X225Y1259D02*
X228Y1259D01*
X242Y1259D02*
X246Y1259D01*
X287Y1259D02*
X294Y1259D01*
X799Y1259D02*
X806Y1259D01*
X36Y1258D02*
X40Y1258D01*
X47Y1258D02*
X51Y1258D01*
X64Y1258D02*
X67Y1258D01*
X74Y1258D02*
X75Y1258D01*
X82Y1258D02*
X85Y1258D01*
X96Y1258D02*
X100Y1258D01*
X104Y1258D02*
X109Y1258D01*
X114Y1258D02*
X117Y1258D01*
X137Y1258D02*
X141Y1258D01*
X160Y1258D02*
X164Y1258D01*
X178Y1258D02*
X182Y1258D01*
X193Y1258D02*
X196Y1258D01*
X210Y1258D02*
X214Y1258D01*
X225Y1258D02*
X228Y1258D01*
X242Y1258D02*
X246Y1258D01*
X287Y1258D02*
X294Y1258D01*
X799Y1258D02*
X806Y1258D01*
X36Y1257D02*
X40Y1257D01*
X48Y1257D02*
X52Y1257D01*
X64Y1257D02*
X67Y1257D01*
X73Y1257D02*
X76Y1257D01*
X82Y1257D02*
X85Y1257D01*
X96Y1257D02*
X100Y1257D01*
X105Y1257D02*
X108Y1257D01*
X114Y1257D02*
X117Y1257D01*
X137Y1257D02*
X141Y1257D01*
X160Y1257D02*
X164Y1257D01*
X178Y1257D02*
X182Y1257D01*
X193Y1257D02*
X196Y1257D01*
X210Y1257D02*
X214Y1257D01*
X225Y1257D02*
X228Y1257D01*
X242Y1257D02*
X246Y1257D01*
X287Y1257D02*
X294Y1257D01*
X799Y1257D02*
X806Y1257D01*
X36Y1256D02*
X40Y1256D01*
X48Y1256D02*
X52Y1256D01*
X64Y1256D02*
X67Y1256D01*
X73Y1256D02*
X76Y1256D01*
X82Y1256D02*
X85Y1256D01*
X96Y1256D02*
X100Y1256D01*
X105Y1256D02*
X108Y1256D01*
X114Y1256D02*
X117Y1256D01*
X137Y1256D02*
X141Y1256D01*
X160Y1256D02*
X164Y1256D01*
X178Y1256D02*
X182Y1256D01*
X193Y1256D02*
X196Y1256D01*
X210Y1256D02*
X214Y1256D01*
X225Y1256D02*
X228Y1256D01*
X242Y1256D02*
X246Y1256D01*
X287Y1256D02*
X294Y1256D01*
X799Y1256D02*
X806Y1256D01*
X36Y1255D02*
X40Y1255D01*
X49Y1255D02*
X53Y1255D01*
X64Y1255D02*
X67Y1255D01*
X73Y1255D02*
X76Y1255D01*
X82Y1255D02*
X85Y1255D01*
X96Y1255D02*
X100Y1255D01*
X105Y1255D02*
X108Y1255D01*
X114Y1255D02*
X117Y1255D01*
X137Y1255D02*
X141Y1255D01*
X160Y1255D02*
X164Y1255D01*
X178Y1255D02*
X182Y1255D01*
X193Y1255D02*
X196Y1255D01*
X210Y1255D02*
X214Y1255D01*
X225Y1255D02*
X228Y1255D01*
X242Y1255D02*
X246Y1255D01*
X287Y1255D02*
X294Y1255D01*
X799Y1255D02*
X806Y1255D01*
X36Y1254D02*
X40Y1254D01*
X49Y1254D02*
X53Y1254D01*
X64Y1254D02*
X67Y1254D01*
X73Y1254D02*
X76Y1254D01*
X82Y1254D02*
X85Y1254D01*
X96Y1254D02*
X100Y1254D01*
X106Y1254D02*
X107Y1254D01*
X114Y1254D02*
X117Y1254D01*
X137Y1254D02*
X141Y1254D01*
X160Y1254D02*
X164Y1254D01*
X178Y1254D02*
X182Y1254D01*
X193Y1254D02*
X196Y1254D01*
X210Y1254D02*
X214Y1254D01*
X225Y1254D02*
X228Y1254D01*
X242Y1254D02*
X246Y1254D01*
X287Y1254D02*
X294Y1254D01*
X799Y1254D02*
X806Y1254D01*
X36Y1253D02*
X40Y1253D01*
X49Y1253D02*
X53Y1253D01*
X64Y1253D02*
X67Y1253D01*
X73Y1253D02*
X76Y1253D01*
X82Y1253D02*
X85Y1253D01*
X96Y1253D02*
X100Y1253D01*
X114Y1253D02*
X117Y1253D01*
X137Y1253D02*
X141Y1253D01*
X160Y1253D02*
X164Y1253D01*
X178Y1253D02*
X182Y1253D01*
X193Y1253D02*
X196Y1253D01*
X210Y1253D02*
X214Y1253D01*
X225Y1253D02*
X228Y1253D01*
X242Y1253D02*
X246Y1253D01*
X287Y1253D02*
X294Y1253D01*
X799Y1253D02*
X806Y1253D01*
X36Y1252D02*
X40Y1252D01*
X49Y1252D02*
X53Y1252D01*
X64Y1252D02*
X67Y1252D01*
X73Y1252D02*
X76Y1252D01*
X82Y1252D02*
X85Y1252D01*
X96Y1252D02*
X100Y1252D01*
X114Y1252D02*
X117Y1252D01*
X137Y1252D02*
X141Y1252D01*
X160Y1252D02*
X164Y1252D01*
X178Y1252D02*
X182Y1252D01*
X193Y1252D02*
X196Y1252D01*
X210Y1252D02*
X214Y1252D01*
X225Y1252D02*
X228Y1252D01*
X242Y1252D02*
X246Y1252D01*
X287Y1252D02*
X294Y1252D01*
X799Y1252D02*
X806Y1252D01*
X36Y1251D02*
X40Y1251D01*
X49Y1251D02*
X53Y1251D01*
X64Y1251D02*
X67Y1251D01*
X73Y1251D02*
X76Y1251D01*
X82Y1251D02*
X85Y1251D01*
X96Y1251D02*
X100Y1251D01*
X114Y1251D02*
X117Y1251D01*
X137Y1251D02*
X141Y1251D01*
X160Y1251D02*
X164Y1251D01*
X178Y1251D02*
X182Y1251D01*
X193Y1251D02*
X196Y1251D01*
X210Y1251D02*
X214Y1251D01*
X225Y1251D02*
X228Y1251D01*
X242Y1251D02*
X246Y1251D01*
X287Y1251D02*
X294Y1251D01*
X799Y1251D02*
X806Y1251D01*
X36Y1250D02*
X40Y1250D01*
X49Y1250D02*
X53Y1250D01*
X64Y1250D02*
X67Y1250D01*
X73Y1250D02*
X76Y1250D01*
X82Y1250D02*
X85Y1250D01*
X96Y1250D02*
X100Y1250D01*
X114Y1250D02*
X117Y1250D01*
X137Y1250D02*
X141Y1250D01*
X147Y1250D02*
X149Y1250D01*
X160Y1250D02*
X164Y1250D01*
X178Y1250D02*
X182Y1250D01*
X193Y1250D02*
X196Y1250D01*
X210Y1250D02*
X214Y1250D01*
X225Y1250D02*
X228Y1250D01*
X242Y1250D02*
X246Y1250D01*
X287Y1250D02*
X294Y1250D01*
X799Y1250D02*
X806Y1250D01*
X36Y1249D02*
X40Y1249D01*
X49Y1249D02*
X52Y1249D01*
X64Y1249D02*
X67Y1249D01*
X73Y1249D02*
X76Y1249D01*
X82Y1249D02*
X85Y1249D01*
X96Y1249D02*
X100Y1249D01*
X114Y1249D02*
X117Y1249D01*
X137Y1249D02*
X141Y1249D01*
X146Y1249D02*
X149Y1249D01*
X160Y1249D02*
X164Y1249D01*
X178Y1249D02*
X182Y1249D01*
X193Y1249D02*
X196Y1249D01*
X210Y1249D02*
X214Y1249D01*
X225Y1249D02*
X228Y1249D01*
X242Y1249D02*
X246Y1249D01*
X287Y1249D02*
X294Y1249D01*
X799Y1249D02*
X806Y1249D01*
X36Y1248D02*
X40Y1248D01*
X48Y1248D02*
X52Y1248D01*
X64Y1248D02*
X67Y1248D01*
X73Y1248D02*
X76Y1248D01*
X82Y1248D02*
X85Y1248D01*
X96Y1248D02*
X100Y1248D01*
X114Y1248D02*
X117Y1248D01*
X137Y1248D02*
X141Y1248D01*
X146Y1248D02*
X149Y1248D01*
X160Y1248D02*
X164Y1248D01*
X178Y1248D02*
X182Y1248D01*
X193Y1248D02*
X196Y1248D01*
X210Y1248D02*
X214Y1248D01*
X225Y1248D02*
X228Y1248D01*
X242Y1248D02*
X246Y1248D01*
X287Y1248D02*
X294Y1248D01*
X799Y1248D02*
X806Y1248D01*
X36Y1247D02*
X40Y1247D01*
X47Y1247D02*
X52Y1247D01*
X64Y1247D02*
X67Y1247D01*
X73Y1247D02*
X76Y1247D01*
X82Y1247D02*
X85Y1247D01*
X96Y1247D02*
X100Y1247D01*
X114Y1247D02*
X117Y1247D01*
X137Y1247D02*
X141Y1247D01*
X146Y1247D02*
X149Y1247D01*
X160Y1247D02*
X164Y1247D01*
X178Y1247D02*
X182Y1247D01*
X193Y1247D02*
X196Y1247D01*
X210Y1247D02*
X214Y1247D01*
X225Y1247D02*
X228Y1247D01*
X242Y1247D02*
X246Y1247D01*
X287Y1247D02*
X294Y1247D01*
X799Y1247D02*
X806Y1247D01*
X36Y1246D02*
X40Y1246D01*
X47Y1246D02*
X51Y1246D01*
X64Y1246D02*
X67Y1246D01*
X73Y1246D02*
X76Y1246D01*
X82Y1246D02*
X85Y1246D01*
X96Y1246D02*
X100Y1246D01*
X114Y1246D02*
X117Y1246D01*
X137Y1246D02*
X141Y1246D01*
X146Y1246D02*
X149Y1246D01*
X160Y1246D02*
X164Y1246D01*
X178Y1246D02*
X182Y1246D01*
X193Y1246D02*
X196Y1246D01*
X210Y1246D02*
X214Y1246D01*
X225Y1246D02*
X228Y1246D01*
X242Y1246D02*
X246Y1246D01*
X287Y1246D02*
X294Y1246D01*
X799Y1246D02*
X806Y1246D01*
X36Y1245D02*
X40Y1245D01*
X46Y1245D02*
X51Y1245D01*
X64Y1245D02*
X67Y1245D01*
X73Y1245D02*
X76Y1245D01*
X82Y1245D02*
X85Y1245D01*
X96Y1245D02*
X100Y1245D01*
X114Y1245D02*
X117Y1245D01*
X137Y1245D02*
X141Y1245D01*
X146Y1245D02*
X149Y1245D01*
X160Y1245D02*
X164Y1245D01*
X178Y1245D02*
X182Y1245D01*
X193Y1245D02*
X196Y1245D01*
X210Y1245D02*
X214Y1245D01*
X225Y1245D02*
X228Y1245D01*
X242Y1245D02*
X246Y1245D01*
X287Y1245D02*
X294Y1245D01*
X799Y1245D02*
X806Y1245D01*
X36Y1244D02*
X40Y1244D01*
X46Y1244D02*
X50Y1244D01*
X64Y1244D02*
X67Y1244D01*
X73Y1244D02*
X76Y1244D01*
X82Y1244D02*
X85Y1244D01*
X96Y1244D02*
X100Y1244D01*
X114Y1244D02*
X117Y1244D01*
X137Y1244D02*
X141Y1244D01*
X146Y1244D02*
X149Y1244D01*
X160Y1244D02*
X164Y1244D01*
X178Y1244D02*
X182Y1244D01*
X193Y1244D02*
X196Y1244D01*
X210Y1244D02*
X214Y1244D01*
X225Y1244D02*
X228Y1244D01*
X242Y1244D02*
X246Y1244D01*
X287Y1244D02*
X294Y1244D01*
X799Y1244D02*
X806Y1244D01*
X36Y1243D02*
X40Y1243D01*
X45Y1243D02*
X50Y1243D01*
X64Y1243D02*
X67Y1243D01*
X73Y1243D02*
X76Y1243D01*
X82Y1243D02*
X85Y1243D01*
X96Y1243D02*
X100Y1243D01*
X114Y1243D02*
X117Y1243D01*
X137Y1243D02*
X141Y1243D01*
X146Y1243D02*
X149Y1243D01*
X160Y1243D02*
X164Y1243D01*
X178Y1243D02*
X182Y1243D01*
X193Y1243D02*
X196Y1243D01*
X210Y1243D02*
X214Y1243D01*
X225Y1243D02*
X228Y1243D01*
X242Y1243D02*
X246Y1243D01*
X287Y1243D02*
X294Y1243D01*
X799Y1243D02*
X806Y1243D01*
X36Y1242D02*
X40Y1242D01*
X45Y1242D02*
X49Y1242D01*
X64Y1242D02*
X67Y1242D01*
X73Y1242D02*
X76Y1242D01*
X82Y1242D02*
X85Y1242D01*
X96Y1242D02*
X100Y1242D01*
X114Y1242D02*
X117Y1242D01*
X137Y1242D02*
X141Y1242D01*
X146Y1242D02*
X149Y1242D01*
X160Y1242D02*
X164Y1242D01*
X178Y1242D02*
X182Y1242D01*
X193Y1242D02*
X196Y1242D01*
X210Y1242D02*
X214Y1242D01*
X225Y1242D02*
X228Y1242D01*
X242Y1242D02*
X246Y1242D01*
X287Y1242D02*
X294Y1242D01*
X799Y1242D02*
X806Y1242D01*
X36Y1241D02*
X40Y1241D01*
X44Y1241D02*
X49Y1241D01*
X64Y1241D02*
X68Y1241D01*
X72Y1241D02*
X77Y1241D01*
X81Y1241D02*
X85Y1241D01*
X96Y1241D02*
X100Y1241D01*
X114Y1241D02*
X117Y1241D01*
X137Y1241D02*
X141Y1241D01*
X146Y1241D02*
X149Y1241D01*
X160Y1241D02*
X164Y1241D01*
X178Y1241D02*
X182Y1241D01*
X193Y1241D02*
X196Y1241D01*
X210Y1241D02*
X214Y1241D01*
X225Y1241D02*
X228Y1241D01*
X242Y1241D02*
X246Y1241D01*
X287Y1241D02*
X294Y1241D01*
X799Y1241D02*
X806Y1241D01*
X36Y1240D02*
X40Y1240D01*
X44Y1240D02*
X48Y1240D01*
X64Y1240D02*
X68Y1240D01*
X72Y1240D02*
X77Y1240D01*
X81Y1240D02*
X85Y1240D01*
X96Y1240D02*
X100Y1240D01*
X114Y1240D02*
X117Y1240D01*
X137Y1240D02*
X141Y1240D01*
X146Y1240D02*
X149Y1240D01*
X160Y1240D02*
X164Y1240D01*
X178Y1240D02*
X182Y1240D01*
X193Y1240D02*
X196Y1240D01*
X210Y1240D02*
X214Y1240D01*
X225Y1240D02*
X228Y1240D01*
X242Y1240D02*
X246Y1240D01*
X287Y1240D02*
X294Y1240D01*
X799Y1240D02*
X806Y1240D01*
X33Y1239D02*
X48Y1239D01*
X65Y1239D02*
X84Y1239D01*
X96Y1239D02*
X100Y1239D01*
X114Y1239D02*
X117Y1239D01*
X129Y1239D02*
X149Y1239D01*
X161Y1239D02*
X182Y1239D01*
X193Y1239D02*
X214Y1239D01*
X225Y1239D02*
X246Y1239D01*
X287Y1239D02*
X294Y1239D01*
X799Y1239D02*
X806Y1239D01*
X32Y1238D02*
X47Y1238D01*
X65Y1238D02*
X84Y1238D01*
X96Y1238D02*
X100Y1238D01*
X114Y1238D02*
X117Y1238D01*
X129Y1238D02*
X149Y1238D01*
X161Y1238D02*
X181Y1238D01*
X193Y1238D02*
X213Y1238D01*
X225Y1238D02*
X246Y1238D01*
X287Y1238D02*
X294Y1238D01*
X799Y1238D02*
X806Y1238D01*
X32Y1237D02*
X46Y1237D01*
X66Y1237D02*
X83Y1237D01*
X96Y1237D02*
X100Y1237D01*
X114Y1237D02*
X117Y1237D01*
X128Y1237D02*
X149Y1237D01*
X161Y1237D02*
X181Y1237D01*
X193Y1237D02*
X213Y1237D01*
X226Y1237D02*
X245Y1237D01*
X287Y1237D02*
X294Y1237D01*
X799Y1237D02*
X806Y1237D01*
X32Y1236D02*
X45Y1236D01*
X66Y1236D02*
X83Y1236D01*
X96Y1236D02*
X99Y1236D01*
X114Y1236D02*
X117Y1236D01*
X129Y1236D02*
X149Y1236D01*
X162Y1236D02*
X180Y1236D01*
X194Y1236D02*
X212Y1236D01*
X226Y1236D02*
X244Y1236D01*
X287Y1236D02*
X294Y1236D01*
X799Y1236D02*
X806Y1236D01*
X33Y1235D02*
X42Y1235D01*
X68Y1235D02*
X72Y1235D01*
X77Y1235D02*
X81Y1235D01*
X98Y1235D02*
X98Y1235D01*
X115Y1235D02*
X116Y1235D01*
X130Y1235D02*
X148Y1235D01*
X164Y1235D02*
X178Y1235D01*
X196Y1235D02*
X210Y1235D01*
X229Y1235D02*
X242Y1235D01*
X287Y1235D02*
X294Y1235D01*
X799Y1235D02*
X806Y1235D01*
X287Y1234D02*
X294Y1234D01*
X799Y1234D02*
X806Y1234D01*
X287Y1233D02*
X294Y1233D01*
X799Y1233D02*
X806Y1233D01*
X287Y1232D02*
X294Y1232D01*
X799Y1232D02*
X806Y1232D01*
X287Y1231D02*
X294Y1231D01*
X799Y1231D02*
X806Y1231D01*
X287Y1230D02*
X294Y1230D01*
X799Y1230D02*
X806Y1230D01*
X287Y1229D02*
X294Y1229D01*
X799Y1229D02*
X806Y1229D01*
X287Y1228D02*
X294Y1228D01*
X799Y1228D02*
X806Y1228D01*
X287Y1227D02*
X294Y1227D01*
X799Y1227D02*
X806Y1227D01*
X287Y1226D02*
X294Y1226D01*
X799Y1226D02*
X806Y1226D01*
X287Y1225D02*
X294Y1225D01*
X799Y1225D02*
X806Y1225D01*
X287Y1224D02*
X294Y1224D01*
X799Y1224D02*
X806Y1224D01*
X287Y1223D02*
X294Y1223D01*
X799Y1223D02*
X806Y1223D01*
X287Y1222D02*
X294Y1222D01*
X799Y1222D02*
X806Y1222D01*
X287Y1221D02*
X294Y1221D01*
X799Y1221D02*
X806Y1221D01*
X287Y1220D02*
X294Y1220D01*
X799Y1220D02*
X806Y1220D01*
X287Y1219D02*
X294Y1219D01*
X799Y1219D02*
X806Y1219D01*
X174Y1218D02*
X178Y1218D01*
X287Y1218D02*
X294Y1218D01*
X799Y1218D02*
X806Y1218D01*
X62Y1217D02*
X70Y1217D01*
X116Y1217D02*
X124Y1217D01*
X145Y1217D02*
X155Y1217D01*
X174Y1217D02*
X178Y1217D01*
X287Y1217D02*
X294Y1217D01*
X799Y1217D02*
X806Y1217D01*
X61Y1216D02*
X71Y1216D01*
X102Y1216D02*
X105Y1216D01*
X114Y1216D02*
X124Y1216D01*
X142Y1216D02*
X157Y1216D01*
X174Y1216D02*
X178Y1216D01*
X287Y1216D02*
X294Y1216D01*
X799Y1216D02*
X806Y1216D01*
X60Y1215D02*
X71Y1215D01*
X102Y1215D02*
X105Y1215D01*
X114Y1215D02*
X124Y1215D01*
X142Y1215D02*
X158Y1215D01*
X174Y1215D02*
X178Y1215D01*
X287Y1215D02*
X294Y1215D01*
X799Y1215D02*
X806Y1215D01*
X61Y1214D02*
X71Y1214D01*
X101Y1214D02*
X104Y1214D01*
X115Y1214D02*
X124Y1214D01*
X141Y1214D02*
X159Y1214D01*
X174Y1214D02*
X178Y1214D01*
X287Y1214D02*
X294Y1214D01*
X799Y1214D02*
X806Y1214D01*
X68Y1213D02*
X71Y1213D01*
X101Y1213D02*
X104Y1213D01*
X121Y1213D02*
X124Y1213D01*
X141Y1213D02*
X144Y1213D01*
X156Y1213D02*
X159Y1213D01*
X287Y1213D02*
X294Y1213D01*
X799Y1213D02*
X806Y1213D01*
X68Y1212D02*
X71Y1212D01*
X100Y1212D02*
X103Y1212D01*
X122Y1212D02*
X124Y1212D01*
X141Y1212D02*
X144Y1212D01*
X156Y1212D02*
X159Y1212D01*
X287Y1212D02*
X294Y1212D01*
X799Y1212D02*
X806Y1212D01*
X68Y1211D02*
X71Y1211D01*
X99Y1211D02*
X103Y1211D01*
X122Y1211D02*
X124Y1211D01*
X141Y1211D02*
X144Y1211D01*
X156Y1211D02*
X159Y1211D01*
X287Y1211D02*
X294Y1211D01*
X799Y1211D02*
X806Y1211D01*
X68Y1210D02*
X71Y1210D01*
X99Y1210D02*
X102Y1210D01*
X122Y1210D02*
X124Y1210D01*
X141Y1210D02*
X144Y1210D01*
X156Y1210D02*
X159Y1210D01*
X287Y1210D02*
X294Y1210D01*
X799Y1210D02*
X806Y1210D01*
X68Y1209D02*
X71Y1209D01*
X98Y1209D02*
X102Y1209D01*
X122Y1209D02*
X124Y1209D01*
X141Y1209D02*
X144Y1209D01*
X156Y1209D02*
X159Y1209D01*
X171Y1209D02*
X177Y1209D01*
X196Y1209D02*
X197Y1209D01*
X204Y1209D02*
X208Y1209D01*
X287Y1209D02*
X294Y1209D01*
X799Y1209D02*
X806Y1209D01*
X68Y1208D02*
X71Y1208D01*
X98Y1208D02*
X101Y1208D01*
X122Y1208D02*
X124Y1208D01*
X141Y1208D02*
X144Y1208D01*
X156Y1208D02*
X159Y1208D01*
X170Y1208D02*
X178Y1208D01*
X195Y1208D02*
X198Y1208D01*
X202Y1208D02*
X210Y1208D01*
X287Y1208D02*
X294Y1208D01*
X799Y1208D02*
X806Y1208D01*
X68Y1207D02*
X71Y1207D01*
X97Y1207D02*
X100Y1207D01*
X122Y1207D02*
X124Y1207D01*
X141Y1207D02*
X144Y1207D01*
X156Y1207D02*
X159Y1207D01*
X170Y1207D02*
X178Y1207D01*
X195Y1207D02*
X198Y1207D01*
X200Y1207D02*
X211Y1207D01*
X287Y1207D02*
X294Y1207D01*
X799Y1207D02*
X806Y1207D01*
X68Y1206D02*
X71Y1206D01*
X96Y1206D02*
X100Y1206D01*
X122Y1206D02*
X124Y1206D01*
X141Y1206D02*
X144Y1206D01*
X156Y1206D02*
X159Y1206D01*
X170Y1206D02*
X178Y1206D01*
X195Y1206D02*
X212Y1206D01*
X287Y1206D02*
X294Y1206D01*
X799Y1206D02*
X806Y1206D01*
X68Y1205D02*
X71Y1205D01*
X96Y1205D02*
X99Y1205D01*
X122Y1205D02*
X124Y1205D01*
X141Y1205D02*
X144Y1205D01*
X156Y1205D02*
X159Y1205D01*
X175Y1205D02*
X178Y1205D01*
X195Y1205D02*
X203Y1205D01*
X209Y1205D02*
X212Y1205D01*
X287Y1205D02*
X294Y1205D01*
X799Y1205D02*
X806Y1205D01*
X68Y1204D02*
X71Y1204D01*
X95Y1204D02*
X99Y1204D01*
X122Y1204D02*
X124Y1204D01*
X141Y1204D02*
X144Y1204D01*
X156Y1204D02*
X159Y1204D01*
X175Y1204D02*
X178Y1204D01*
X195Y1204D02*
X202Y1204D01*
X209Y1204D02*
X212Y1204D01*
X287Y1204D02*
X294Y1204D01*
X799Y1204D02*
X806Y1204D01*
X68Y1203D02*
X71Y1203D01*
X95Y1203D02*
X98Y1203D01*
X122Y1203D02*
X124Y1203D01*
X141Y1203D02*
X144Y1203D01*
X156Y1203D02*
X159Y1203D01*
X175Y1203D02*
X178Y1203D01*
X195Y1203D02*
X200Y1203D01*
X209Y1203D02*
X212Y1203D01*
X287Y1203D02*
X294Y1203D01*
X799Y1203D02*
X806Y1203D01*
X68Y1202D02*
X71Y1202D01*
X94Y1202D02*
X97Y1202D01*
X122Y1202D02*
X124Y1202D01*
X141Y1202D02*
X144Y1202D01*
X156Y1202D02*
X159Y1202D01*
X175Y1202D02*
X178Y1202D01*
X195Y1202D02*
X199Y1202D01*
X209Y1202D02*
X212Y1202D01*
X287Y1202D02*
X294Y1202D01*
X799Y1202D02*
X806Y1202D01*
X68Y1201D02*
X71Y1201D01*
X76Y1201D02*
X77Y1201D01*
X93Y1201D02*
X97Y1201D01*
X122Y1201D02*
X124Y1201D01*
X130Y1201D02*
X131Y1201D01*
X141Y1201D02*
X144Y1201D01*
X156Y1201D02*
X159Y1201D01*
X175Y1201D02*
X178Y1201D01*
X195Y1201D02*
X198Y1201D01*
X209Y1201D02*
X212Y1201D01*
X287Y1201D02*
X294Y1201D01*
X799Y1201D02*
X806Y1201D01*
X68Y1200D02*
X71Y1200D01*
X75Y1200D02*
X78Y1200D01*
X93Y1200D02*
X96Y1200D01*
X122Y1200D02*
X124Y1200D01*
X129Y1200D02*
X132Y1200D01*
X141Y1200D02*
X144Y1200D01*
X156Y1200D02*
X159Y1200D01*
X175Y1200D02*
X178Y1200D01*
X195Y1200D02*
X198Y1200D01*
X209Y1200D02*
X212Y1200D01*
X287Y1200D02*
X294Y1200D01*
X799Y1200D02*
X806Y1200D01*
X68Y1199D02*
X71Y1199D01*
X75Y1199D02*
X78Y1199D01*
X92Y1199D02*
X96Y1199D01*
X122Y1199D02*
X124Y1199D01*
X129Y1199D02*
X132Y1199D01*
X141Y1199D02*
X144Y1199D01*
X156Y1199D02*
X159Y1199D01*
X175Y1199D02*
X178Y1199D01*
X195Y1199D02*
X198Y1199D01*
X209Y1199D02*
X212Y1199D01*
X287Y1199D02*
X294Y1199D01*
X799Y1199D02*
X806Y1199D01*
X68Y1198D02*
X71Y1198D01*
X75Y1198D02*
X78Y1198D01*
X92Y1198D02*
X95Y1198D01*
X122Y1198D02*
X124Y1198D01*
X129Y1198D02*
X132Y1198D01*
X141Y1198D02*
X144Y1198D01*
X156Y1198D02*
X159Y1198D01*
X175Y1198D02*
X178Y1198D01*
X195Y1198D02*
X198Y1198D01*
X209Y1198D02*
X212Y1198D01*
X287Y1198D02*
X294Y1198D01*
X799Y1198D02*
X806Y1198D01*
X68Y1197D02*
X71Y1197D01*
X75Y1197D02*
X78Y1197D01*
X91Y1197D02*
X95Y1197D01*
X122Y1197D02*
X124Y1197D01*
X129Y1197D02*
X132Y1197D01*
X141Y1197D02*
X144Y1197D01*
X156Y1197D02*
X159Y1197D01*
X175Y1197D02*
X178Y1197D01*
X195Y1197D02*
X198Y1197D01*
X209Y1197D02*
X212Y1197D01*
X287Y1197D02*
X294Y1197D01*
X799Y1197D02*
X806Y1197D01*
X68Y1196D02*
X71Y1196D01*
X75Y1196D02*
X78Y1196D01*
X91Y1196D02*
X94Y1196D01*
X122Y1196D02*
X124Y1196D01*
X129Y1196D02*
X132Y1196D01*
X141Y1196D02*
X144Y1196D01*
X156Y1196D02*
X159Y1196D01*
X175Y1196D02*
X178Y1196D01*
X195Y1196D02*
X198Y1196D01*
X209Y1196D02*
X212Y1196D01*
X287Y1196D02*
X294Y1196D01*
X799Y1196D02*
X806Y1196D01*
X68Y1195D02*
X71Y1195D01*
X75Y1195D02*
X78Y1195D01*
X90Y1195D02*
X93Y1195D01*
X122Y1195D02*
X124Y1195D01*
X129Y1195D02*
X132Y1195D01*
X141Y1195D02*
X144Y1195D01*
X156Y1195D02*
X159Y1195D01*
X175Y1195D02*
X178Y1195D01*
X195Y1195D02*
X198Y1195D01*
X209Y1195D02*
X212Y1195D01*
X287Y1195D02*
X294Y1195D01*
X799Y1195D02*
X806Y1195D01*
X68Y1194D02*
X71Y1194D01*
X75Y1194D02*
X78Y1194D01*
X89Y1194D02*
X93Y1194D01*
X122Y1194D02*
X124Y1194D01*
X129Y1194D02*
X132Y1194D01*
X141Y1194D02*
X144Y1194D01*
X156Y1194D02*
X159Y1194D01*
X175Y1194D02*
X178Y1194D01*
X195Y1194D02*
X198Y1194D01*
X209Y1194D02*
X212Y1194D01*
X287Y1194D02*
X294Y1194D01*
X799Y1194D02*
X806Y1194D01*
X68Y1193D02*
X71Y1193D01*
X75Y1193D02*
X78Y1193D01*
X89Y1193D02*
X92Y1193D01*
X122Y1193D02*
X124Y1193D01*
X129Y1193D02*
X132Y1193D01*
X141Y1193D02*
X144Y1193D01*
X156Y1193D02*
X159Y1193D01*
X175Y1193D02*
X178Y1193D01*
X195Y1193D02*
X198Y1193D01*
X209Y1193D02*
X212Y1193D01*
X287Y1193D02*
X294Y1193D01*
X799Y1193D02*
X806Y1193D01*
X68Y1192D02*
X71Y1192D01*
X75Y1192D02*
X78Y1192D01*
X88Y1192D02*
X92Y1192D01*
X121Y1192D02*
X125Y1192D01*
X129Y1192D02*
X132Y1192D01*
X141Y1192D02*
X144Y1192D01*
X156Y1192D02*
X159Y1192D01*
X175Y1192D02*
X178Y1192D01*
X195Y1192D02*
X198Y1192D01*
X209Y1192D02*
X212Y1192D01*
X287Y1192D02*
X294Y1192D01*
X799Y1192D02*
X806Y1192D01*
X61Y1191D02*
X78Y1191D01*
X88Y1191D02*
X91Y1191D01*
X115Y1191D02*
X132Y1191D01*
X141Y1191D02*
X159Y1191D01*
X170Y1191D02*
X183Y1191D01*
X195Y1191D02*
X198Y1191D01*
X209Y1191D02*
X212Y1191D01*
X287Y1191D02*
X294Y1191D01*
X799Y1191D02*
X806Y1191D01*
X60Y1190D02*
X78Y1190D01*
X87Y1190D02*
X90Y1190D01*
X114Y1190D02*
X132Y1190D01*
X142Y1190D02*
X158Y1190D01*
X170Y1190D02*
X184Y1190D01*
X195Y1190D02*
X198Y1190D01*
X209Y1190D02*
X212Y1190D01*
X287Y1190D02*
X294Y1190D01*
X799Y1190D02*
X806Y1190D01*
X61Y1189D02*
X78Y1189D01*
X88Y1189D02*
X90Y1189D01*
X115Y1189D02*
X131Y1189D01*
X143Y1189D02*
X157Y1189D01*
X170Y1189D02*
X183Y1189D01*
X195Y1189D02*
X197Y1189D01*
X210Y1189D02*
X212Y1189D01*
X287Y1189D02*
X294Y1189D01*
X799Y1189D02*
X806Y1189D01*
X287Y1188D02*
X294Y1188D01*
X799Y1188D02*
X806Y1188D01*
X287Y1187D02*
X294Y1187D01*
X799Y1187D02*
X806Y1187D01*
X287Y1186D02*
X294Y1186D01*
X799Y1186D02*
X806Y1186D01*
X287Y1185D02*
X294Y1185D01*
X799Y1185D02*
X806Y1185D01*
X287Y1184D02*
X294Y1184D01*
X799Y1184D02*
X806Y1184D01*
X287Y1183D02*
X294Y1183D01*
X799Y1183D02*
X806Y1183D01*
X287Y1182D02*
X294Y1182D01*
X799Y1182D02*
X806Y1182D01*
X287Y1181D02*
X294Y1181D01*
X799Y1181D02*
X806Y1181D01*
X287Y1180D02*
X294Y1180D01*
X799Y1180D02*
X806Y1180D01*
X287Y1179D02*
X294Y1179D01*
X799Y1179D02*
X806Y1179D01*
X287Y1178D02*
X294Y1178D01*
X799Y1178D02*
X806Y1178D01*
X287Y1177D02*
X294Y1177D01*
X799Y1177D02*
X806Y1177D01*
X287Y1176D02*
X294Y1176D01*
X799Y1176D02*
X806Y1176D01*
X287Y1175D02*
X294Y1175D01*
X799Y1175D02*
X806Y1175D01*
X287Y1174D02*
X294Y1174D01*
X799Y1174D02*
X806Y1174D01*
X287Y1173D02*
X294Y1173D01*
X799Y1173D02*
X806Y1173D01*
X287Y1172D02*
X294Y1172D01*
X799Y1172D02*
X806Y1172D01*
X287Y1171D02*
X294Y1171D01*
X799Y1171D02*
X806Y1171D01*
X86Y1170D02*
X86Y1170D01*
X287Y1170D02*
X294Y1170D01*
X799Y1170D02*
X806Y1170D01*
X44Y1169D02*
X46Y1169D01*
X85Y1169D02*
X87Y1169D01*
X287Y1169D02*
X294Y1169D01*
X799Y1169D02*
X806Y1169D01*
X43Y1168D02*
X47Y1168D01*
X84Y1168D02*
X88Y1168D01*
X169Y1168D02*
X169Y1168D01*
X287Y1168D02*
X294Y1168D01*
X799Y1168D02*
X806Y1168D01*
X43Y1167D02*
X47Y1167D01*
X84Y1167D02*
X88Y1167D01*
X168Y1167D02*
X171Y1167D01*
X287Y1167D02*
X294Y1167D01*
X799Y1167D02*
X806Y1167D01*
X43Y1166D02*
X47Y1166D01*
X84Y1166D02*
X88Y1166D01*
X167Y1166D02*
X171Y1166D01*
X287Y1166D02*
X294Y1166D01*
X799Y1166D02*
X806Y1166D01*
X42Y1165D02*
X48Y1165D01*
X84Y1165D02*
X88Y1165D01*
X167Y1165D02*
X171Y1165D01*
X287Y1165D02*
X294Y1165D01*
X799Y1165D02*
X806Y1165D01*
X42Y1164D02*
X48Y1164D01*
X84Y1164D02*
X88Y1164D01*
X167Y1164D02*
X171Y1164D01*
X287Y1164D02*
X294Y1164D01*
X799Y1164D02*
X806Y1164D01*
X42Y1163D02*
X48Y1163D01*
X84Y1163D02*
X88Y1163D01*
X167Y1163D02*
X171Y1163D01*
X287Y1163D02*
X294Y1163D01*
X799Y1163D02*
X806Y1163D01*
X42Y1162D02*
X49Y1162D01*
X84Y1162D02*
X88Y1162D01*
X167Y1162D02*
X171Y1162D01*
X287Y1162D02*
X294Y1162D01*
X799Y1162D02*
X806Y1162D01*
X41Y1161D02*
X49Y1161D01*
X84Y1161D02*
X88Y1161D01*
X132Y1161D02*
X134Y1161D01*
X139Y1161D02*
X144Y1161D01*
X167Y1161D02*
X171Y1161D01*
X287Y1161D02*
X294Y1161D01*
X799Y1161D02*
X806Y1161D01*
X41Y1160D02*
X49Y1160D01*
X72Y1160D02*
X80Y1160D01*
X84Y1160D02*
X88Y1160D01*
X104Y1160D02*
X116Y1160D01*
X131Y1160D02*
X134Y1160D01*
X137Y1160D02*
X146Y1160D01*
X164Y1160D02*
X181Y1160D01*
X201Y1160D02*
X211Y1160D01*
X228Y1160D02*
X230Y1160D01*
X237Y1160D02*
X244Y1160D01*
X287Y1160D02*
X294Y1160D01*
X799Y1160D02*
X806Y1160D01*
X41Y1159D02*
X49Y1159D01*
X71Y1159D02*
X82Y1159D01*
X84Y1159D02*
X88Y1159D01*
X103Y1159D02*
X117Y1159D01*
X131Y1159D02*
X134Y1159D01*
X136Y1159D02*
X147Y1159D01*
X163Y1159D02*
X182Y1159D01*
X199Y1159D02*
X212Y1159D01*
X227Y1159D02*
X231Y1159D01*
X236Y1159D02*
X246Y1159D01*
X287Y1159D02*
X294Y1159D01*
X799Y1159D02*
X806Y1159D01*
X40Y1158D02*
X44Y1158D01*
X46Y1158D02*
X50Y1158D01*
X69Y1158D02*
X88Y1158D01*
X103Y1158D02*
X118Y1158D01*
X131Y1158D02*
X148Y1158D01*
X163Y1158D02*
X182Y1158D01*
X198Y1158D02*
X213Y1158D01*
X227Y1158D02*
X231Y1158D01*
X234Y1158D02*
X247Y1158D01*
X287Y1158D02*
X294Y1158D01*
X799Y1158D02*
X806Y1158D01*
X40Y1157D02*
X44Y1157D01*
X46Y1157D02*
X50Y1157D01*
X69Y1157D02*
X88Y1157D01*
X104Y1157D02*
X119Y1157D01*
X131Y1157D02*
X140Y1157D01*
X143Y1157D02*
X149Y1157D01*
X164Y1157D02*
X181Y1157D01*
X197Y1157D02*
X215Y1157D01*
X227Y1157D02*
X231Y1157D01*
X233Y1157D02*
X248Y1157D01*
X287Y1157D02*
X294Y1157D01*
X799Y1157D02*
X806Y1157D01*
X40Y1156D02*
X43Y1156D01*
X47Y1156D02*
X50Y1156D01*
X68Y1156D02*
X73Y1156D01*
X79Y1156D02*
X88Y1156D01*
X114Y1156D02*
X119Y1156D01*
X131Y1156D02*
X139Y1156D01*
X145Y1156D02*
X150Y1156D01*
X167Y1156D02*
X171Y1156D01*
X196Y1156D02*
X202Y1156D01*
X209Y1156D02*
X215Y1156D01*
X227Y1156D02*
X238Y1156D01*
X243Y1156D02*
X248Y1156D01*
X287Y1156D02*
X294Y1156D01*
X799Y1156D02*
X806Y1156D01*
X39Y1155D02*
X43Y1155D01*
X47Y1155D02*
X51Y1155D01*
X67Y1155D02*
X72Y1155D01*
X80Y1155D02*
X88Y1155D01*
X115Y1155D02*
X119Y1155D01*
X131Y1155D02*
X138Y1155D01*
X146Y1155D02*
X151Y1155D01*
X167Y1155D02*
X171Y1155D01*
X196Y1155D02*
X200Y1155D01*
X211Y1155D02*
X216Y1155D01*
X227Y1155D02*
X237Y1155D01*
X245Y1155D02*
X248Y1155D01*
X287Y1155D02*
X294Y1155D01*
X799Y1155D02*
X806Y1155D01*
X39Y1154D02*
X43Y1154D01*
X47Y1154D02*
X51Y1154D01*
X67Y1154D02*
X71Y1154D01*
X82Y1154D02*
X88Y1154D01*
X116Y1154D02*
X120Y1154D01*
X131Y1154D02*
X137Y1154D01*
X147Y1154D02*
X151Y1154D01*
X167Y1154D02*
X171Y1154D01*
X195Y1154D02*
X199Y1154D01*
X212Y1154D02*
X216Y1154D01*
X227Y1154D02*
X236Y1154D01*
X245Y1154D02*
X248Y1154D01*
X287Y1154D02*
X294Y1154D01*
X799Y1154D02*
X806Y1154D01*
X39Y1153D02*
X43Y1153D01*
X48Y1153D02*
X51Y1153D01*
X67Y1153D02*
X70Y1153D01*
X83Y1153D02*
X88Y1153D01*
X116Y1153D02*
X120Y1153D01*
X131Y1153D02*
X136Y1153D01*
X148Y1153D02*
X152Y1153D01*
X167Y1153D02*
X171Y1153D01*
X195Y1153D02*
X199Y1153D01*
X213Y1153D02*
X216Y1153D01*
X227Y1153D02*
X234Y1153D01*
X245Y1153D02*
X248Y1153D01*
X287Y1153D02*
X294Y1153D01*
X799Y1153D02*
X806Y1153D01*
X39Y1152D02*
X42Y1152D01*
X48Y1152D02*
X52Y1152D01*
X67Y1152D02*
X70Y1152D01*
X84Y1152D02*
X88Y1152D01*
X116Y1152D02*
X120Y1152D01*
X131Y1152D02*
X135Y1152D01*
X148Y1152D02*
X152Y1152D01*
X167Y1152D02*
X171Y1152D01*
X195Y1152D02*
X199Y1152D01*
X213Y1152D02*
X216Y1152D01*
X227Y1152D02*
X233Y1152D01*
X245Y1152D02*
X248Y1152D01*
X287Y1152D02*
X294Y1152D01*
X799Y1152D02*
X806Y1152D01*
X38Y1151D02*
X42Y1151D01*
X48Y1151D02*
X52Y1151D01*
X67Y1151D02*
X70Y1151D01*
X84Y1151D02*
X88Y1151D01*
X104Y1151D02*
X120Y1151D01*
X131Y1151D02*
X134Y1151D01*
X149Y1151D02*
X152Y1151D01*
X167Y1151D02*
X171Y1151D01*
X195Y1151D02*
X199Y1151D01*
X213Y1151D02*
X216Y1151D01*
X227Y1151D02*
X232Y1151D01*
X246Y1151D02*
X247Y1151D01*
X287Y1151D02*
X294Y1151D01*
X799Y1151D02*
X806Y1151D01*
X38Y1150D02*
X42Y1150D01*
X48Y1150D02*
X52Y1150D01*
X67Y1150D02*
X70Y1150D01*
X84Y1150D02*
X88Y1150D01*
X102Y1150D02*
X120Y1150D01*
X131Y1150D02*
X134Y1150D01*
X149Y1150D02*
X152Y1150D01*
X167Y1150D02*
X171Y1150D01*
X195Y1150D02*
X199Y1150D01*
X213Y1150D02*
X216Y1150D01*
X227Y1150D02*
X231Y1150D01*
X287Y1150D02*
X294Y1150D01*
X799Y1150D02*
X806Y1150D01*
X38Y1149D02*
X41Y1149D01*
X49Y1149D02*
X52Y1149D01*
X67Y1149D02*
X70Y1149D01*
X84Y1149D02*
X88Y1149D01*
X101Y1149D02*
X120Y1149D01*
X131Y1149D02*
X134Y1149D01*
X149Y1149D02*
X152Y1149D01*
X167Y1149D02*
X171Y1149D01*
X195Y1149D02*
X216Y1149D01*
X227Y1149D02*
X231Y1149D01*
X287Y1149D02*
X294Y1149D01*
X799Y1149D02*
X806Y1149D01*
X37Y1148D02*
X41Y1148D01*
X49Y1148D02*
X53Y1148D01*
X67Y1148D02*
X70Y1148D01*
X84Y1148D02*
X88Y1148D01*
X100Y1148D02*
X120Y1148D01*
X131Y1148D02*
X134Y1148D01*
X149Y1148D02*
X152Y1148D01*
X167Y1148D02*
X171Y1148D01*
X195Y1148D02*
X216Y1148D01*
X227Y1148D02*
X231Y1148D01*
X287Y1148D02*
X294Y1148D01*
X799Y1148D02*
X806Y1148D01*
X37Y1147D02*
X53Y1147D01*
X67Y1147D02*
X70Y1147D01*
X84Y1147D02*
X88Y1147D01*
X99Y1147D02*
X120Y1147D01*
X131Y1147D02*
X134Y1147D01*
X149Y1147D02*
X152Y1147D01*
X167Y1147D02*
X171Y1147D01*
X195Y1147D02*
X216Y1147D01*
X227Y1147D02*
X231Y1147D01*
X287Y1147D02*
X294Y1147D01*
X799Y1147D02*
X806Y1147D01*
X37Y1146D02*
X53Y1146D01*
X67Y1146D02*
X70Y1146D01*
X84Y1146D02*
X88Y1146D01*
X99Y1146D02*
X103Y1146D01*
X115Y1146D02*
X120Y1146D01*
X131Y1146D02*
X134Y1146D01*
X149Y1146D02*
X152Y1146D01*
X167Y1146D02*
X171Y1146D01*
X195Y1146D02*
X216Y1146D01*
X227Y1146D02*
X231Y1146D01*
X287Y1146D02*
X294Y1146D01*
X799Y1146D02*
X806Y1146D01*
X37Y1145D02*
X54Y1145D01*
X67Y1145D02*
X70Y1145D01*
X84Y1145D02*
X88Y1145D01*
X99Y1145D02*
X102Y1145D01*
X116Y1145D02*
X120Y1145D01*
X131Y1145D02*
X134Y1145D01*
X149Y1145D02*
X152Y1145D01*
X167Y1145D02*
X171Y1145D01*
X195Y1145D02*
X215Y1145D01*
X227Y1145D02*
X231Y1145D01*
X287Y1145D02*
X294Y1145D01*
X799Y1145D02*
X806Y1145D01*
X36Y1144D02*
X54Y1144D01*
X67Y1144D02*
X70Y1144D01*
X84Y1144D02*
X88Y1144D01*
X99Y1144D02*
X102Y1144D01*
X116Y1144D02*
X120Y1144D01*
X131Y1144D02*
X135Y1144D01*
X148Y1144D02*
X152Y1144D01*
X167Y1144D02*
X171Y1144D01*
X195Y1144D02*
X199Y1144D01*
X227Y1144D02*
X231Y1144D01*
X287Y1144D02*
X294Y1144D01*
X799Y1144D02*
X806Y1144D01*
X36Y1143D02*
X54Y1143D01*
X67Y1143D02*
X70Y1143D01*
X83Y1143D02*
X88Y1143D01*
X99Y1143D02*
X102Y1143D01*
X116Y1143D02*
X120Y1143D01*
X131Y1143D02*
X135Y1143D01*
X148Y1143D02*
X152Y1143D01*
X167Y1143D02*
X171Y1143D01*
X181Y1143D02*
X183Y1143D01*
X195Y1143D02*
X199Y1143D01*
X227Y1143D02*
X231Y1143D01*
X287Y1143D02*
X294Y1143D01*
X799Y1143D02*
X806Y1143D01*
X36Y1142D02*
X39Y1142D01*
X51Y1142D02*
X54Y1142D01*
X67Y1142D02*
X71Y1142D01*
X81Y1142D02*
X88Y1142D01*
X99Y1142D02*
X102Y1142D01*
X115Y1142D02*
X120Y1142D01*
X131Y1142D02*
X137Y1142D01*
X147Y1142D02*
X152Y1142D01*
X167Y1142D02*
X171Y1142D01*
X181Y1142D02*
X184Y1142D01*
X195Y1142D02*
X199Y1142D01*
X227Y1142D02*
X231Y1142D01*
X287Y1142D02*
X294Y1142D01*
X799Y1142D02*
X806Y1142D01*
X35Y1141D02*
X39Y1141D01*
X51Y1141D02*
X55Y1141D01*
X67Y1141D02*
X72Y1141D01*
X80Y1141D02*
X88Y1141D01*
X99Y1141D02*
X103Y1141D01*
X113Y1141D02*
X120Y1141D01*
X131Y1141D02*
X138Y1141D01*
X146Y1141D02*
X151Y1141D01*
X167Y1141D02*
X171Y1141D01*
X180Y1141D02*
X184Y1141D01*
X196Y1141D02*
X200Y1141D01*
X227Y1141D02*
X231Y1141D01*
X287Y1141D02*
X294Y1141D01*
X799Y1141D02*
X806Y1141D01*
X35Y1140D02*
X39Y1140D01*
X51Y1140D02*
X55Y1140D01*
X68Y1140D02*
X73Y1140D01*
X79Y1140D02*
X88Y1140D01*
X99Y1140D02*
X104Y1140D01*
X112Y1140D02*
X120Y1140D01*
X131Y1140D02*
X139Y1140D01*
X144Y1140D02*
X150Y1140D01*
X168Y1140D02*
X172Y1140D01*
X179Y1140D02*
X184Y1140D01*
X196Y1140D02*
X202Y1140D01*
X227Y1140D02*
X231Y1140D01*
X287Y1140D02*
X294Y1140D01*
X799Y1140D02*
X806Y1140D01*
X35Y1139D02*
X38Y1139D01*
X52Y1139D02*
X55Y1139D01*
X68Y1139D02*
X88Y1139D01*
X100Y1139D02*
X120Y1139D01*
X131Y1139D02*
X140Y1139D01*
X143Y1139D02*
X149Y1139D01*
X168Y1139D02*
X183Y1139D01*
X197Y1139D02*
X216Y1139D01*
X227Y1139D02*
X231Y1139D01*
X287Y1139D02*
X294Y1139D01*
X799Y1139D02*
X806Y1139D01*
X34Y1138D02*
X38Y1138D01*
X52Y1138D02*
X56Y1138D01*
X69Y1138D02*
X88Y1138D01*
X100Y1138D02*
X120Y1138D01*
X131Y1138D02*
X148Y1138D01*
X169Y1138D02*
X183Y1138D01*
X198Y1138D02*
X216Y1138D01*
X227Y1138D02*
X231Y1138D01*
X287Y1138D02*
X294Y1138D01*
X799Y1138D02*
X806Y1138D01*
X35Y1137D02*
X38Y1137D01*
X52Y1137D02*
X56Y1137D01*
X71Y1137D02*
X82Y1137D01*
X84Y1137D02*
X88Y1137D01*
X101Y1137D02*
X114Y1137D01*
X117Y1137D02*
X119Y1137D01*
X131Y1137D02*
X134Y1137D01*
X136Y1137D02*
X147Y1137D01*
X170Y1137D02*
X182Y1137D01*
X199Y1137D02*
X216Y1137D01*
X227Y1137D02*
X231Y1137D01*
X287Y1137D02*
X294Y1137D01*
X799Y1137D02*
X806Y1137D01*
X35Y1136D02*
X37Y1136D01*
X53Y1136D02*
X55Y1136D01*
X72Y1136D02*
X80Y1136D01*
X85Y1136D02*
X87Y1136D01*
X103Y1136D02*
X113Y1136D01*
X117Y1136D02*
X119Y1136D01*
X131Y1136D02*
X134Y1136D01*
X137Y1136D02*
X146Y1136D01*
X171Y1136D02*
X180Y1136D01*
X201Y1136D02*
X215Y1136D01*
X228Y1136D02*
X230Y1136D01*
X287Y1136D02*
X294Y1136D01*
X799Y1136D02*
X806Y1136D01*
X131Y1135D02*
X134Y1135D01*
X139Y1135D02*
X144Y1135D01*
X287Y1135D02*
X294Y1135D01*
X799Y1135D02*
X806Y1135D01*
X131Y1134D02*
X134Y1134D01*
X287Y1134D02*
X294Y1134D01*
X799Y1134D02*
X806Y1134D01*
X131Y1133D02*
X134Y1133D01*
X287Y1133D02*
X294Y1133D01*
X799Y1133D02*
X806Y1133D01*
X131Y1132D02*
X134Y1132D01*
X287Y1132D02*
X294Y1132D01*
X799Y1132D02*
X806Y1132D01*
X131Y1131D02*
X134Y1131D01*
X287Y1131D02*
X294Y1131D01*
X799Y1131D02*
X806Y1131D01*
X131Y1130D02*
X134Y1130D01*
X287Y1130D02*
X294Y1130D01*
X799Y1130D02*
X806Y1130D01*
X131Y1129D02*
X134Y1129D01*
X287Y1129D02*
X294Y1129D01*
X799Y1129D02*
X806Y1129D01*
X131Y1128D02*
X134Y1128D01*
X287Y1128D02*
X294Y1128D01*
X799Y1128D02*
X806Y1128D01*
X131Y1127D02*
X134Y1127D01*
X287Y1127D02*
X294Y1127D01*
X799Y1127D02*
X806Y1127D01*
X287Y1126D02*
X294Y1126D01*
X799Y1126D02*
X806Y1126D01*
X287Y1125D02*
X294Y1125D01*
X799Y1125D02*
X806Y1125D01*
X287Y1124D02*
X294Y1124D01*
X799Y1124D02*
X806Y1124D01*
X287Y1123D02*
X294Y1123D01*
X799Y1123D02*
X806Y1123D01*
X287Y1122D02*
X294Y1122D01*
X799Y1122D02*
X806Y1122D01*
X287Y1121D02*
X294Y1121D01*
X799Y1121D02*
X806Y1121D01*
X287Y1120D02*
X294Y1120D01*
X799Y1120D02*
X806Y1120D01*
X287Y1119D02*
X294Y1119D01*
X799Y1119D02*
X806Y1119D01*
X287Y1118D02*
X294Y1118D01*
X799Y1118D02*
X806Y1118D01*
X287Y1117D02*
X294Y1117D01*
X799Y1117D02*
X806Y1117D01*
X287Y1116D02*
X294Y1116D01*
X799Y1116D02*
X806Y1116D01*
X287Y1115D02*
X294Y1115D01*
X799Y1115D02*
X806Y1115D01*
X287Y1114D02*
X294Y1114D01*
X799Y1114D02*
X806Y1114D01*
X287Y1113D02*
X294Y1113D01*
X799Y1113D02*
X806Y1113D01*
X287Y1112D02*
X294Y1112D01*
X799Y1112D02*
X806Y1112D01*
X287Y1111D02*
X294Y1111D01*
X799Y1111D02*
X806Y1111D01*
X287Y1110D02*
X294Y1110D01*
X799Y1110D02*
X806Y1110D01*
X287Y1109D02*
X294Y1109D01*
X799Y1109D02*
X806Y1109D01*
X287Y1108D02*
X294Y1108D01*
X799Y1108D02*
X806Y1108D01*
X287Y1107D02*
X294Y1107D01*
X799Y1107D02*
X806Y1107D01*
X287Y1106D02*
X294Y1106D01*
X799Y1106D02*
X806Y1106D01*
X287Y1105D02*
X294Y1105D01*
X799Y1105D02*
X806Y1105D01*
X287Y1104D02*
X294Y1104D01*
X799Y1104D02*
X806Y1104D01*
X287Y1103D02*
X294Y1103D01*
X799Y1103D02*
X806Y1103D01*
X287Y1102D02*
X294Y1102D01*
X799Y1102D02*
X806Y1102D01*
X287Y1101D02*
X294Y1101D01*
X799Y1101D02*
X806Y1101D01*
X287Y1100D02*
X294Y1100D01*
X799Y1100D02*
X806Y1100D01*
X287Y1099D02*
X294Y1099D01*
X799Y1099D02*
X806Y1099D01*
X287Y1098D02*
X294Y1098D01*
X799Y1098D02*
X806Y1098D01*
X287Y1097D02*
X294Y1097D01*
X799Y1097D02*
X806Y1097D01*
X287Y1096D02*
X294Y1096D01*
X799Y1096D02*
X806Y1096D01*
X287Y1095D02*
X294Y1095D01*
X799Y1095D02*
X806Y1095D01*
X287Y1094D02*
X294Y1094D01*
X799Y1094D02*
X806Y1094D01*
X287Y1093D02*
X294Y1093D01*
X799Y1093D02*
X806Y1093D01*
X287Y1092D02*
X294Y1092D01*
X799Y1092D02*
X806Y1092D01*
X287Y1091D02*
X294Y1091D01*
X799Y1091D02*
X806Y1091D01*
X287Y1090D02*
X294Y1090D01*
X799Y1090D02*
X806Y1090D01*
X287Y1089D02*
X294Y1089D01*
X799Y1089D02*
X806Y1089D01*
X287Y1088D02*
X294Y1088D01*
X799Y1088D02*
X806Y1088D01*
X287Y1087D02*
X294Y1087D01*
X799Y1087D02*
X806Y1087D01*
X287Y1086D02*
X294Y1086D01*
X799Y1086D02*
X806Y1086D01*
X287Y1085D02*
X294Y1085D01*
X799Y1085D02*
X806Y1085D01*
X287Y1084D02*
X294Y1084D01*
X799Y1084D02*
X806Y1084D01*
X287Y1083D02*
X294Y1083D01*
X799Y1083D02*
X806Y1083D01*
X287Y1082D02*
X294Y1082D01*
X799Y1082D02*
X806Y1082D01*
X287Y1081D02*
X294Y1081D01*
X799Y1081D02*
X806Y1081D01*
X287Y1080D02*
X294Y1080D01*
X799Y1080D02*
X806Y1080D01*
X287Y1079D02*
X294Y1079D01*
X799Y1079D02*
X806Y1079D01*
X287Y1078D02*
X294Y1078D01*
X799Y1078D02*
X806Y1078D01*
X287Y1077D02*
X294Y1077D01*
X799Y1077D02*
X806Y1077D01*
X287Y1076D02*
X294Y1076D01*
X799Y1076D02*
X806Y1076D01*
X287Y1075D02*
X294Y1075D01*
X799Y1075D02*
X806Y1075D01*
X287Y1074D02*
X294Y1074D01*
X799Y1074D02*
X806Y1074D01*
X287Y1073D02*
X294Y1073D01*
X799Y1073D02*
X806Y1073D01*
X287Y1072D02*
X294Y1072D01*
X799Y1072D02*
X806Y1072D01*
X287Y1071D02*
X294Y1071D01*
X799Y1071D02*
X806Y1071D01*
X287Y1070D02*
X294Y1070D01*
X799Y1070D02*
X806Y1070D01*
X287Y1069D02*
X294Y1069D01*
X799Y1069D02*
X806Y1069D01*
X287Y1068D02*
X294Y1068D01*
X799Y1068D02*
X806Y1068D01*
X287Y1067D02*
X294Y1067D01*
X799Y1067D02*
X806Y1067D01*
X287Y1066D02*
X294Y1066D01*
X799Y1066D02*
X806Y1066D01*
X287Y1065D02*
X294Y1065D01*
X799Y1065D02*
X806Y1065D01*
X287Y1064D02*
X294Y1064D01*
X799Y1064D02*
X806Y1064D01*
X287Y1063D02*
X294Y1063D01*
X799Y1063D02*
X806Y1063D01*
X287Y1062D02*
X294Y1062D01*
X799Y1062D02*
X806Y1062D01*
X287Y1061D02*
X294Y1061D01*
X799Y1061D02*
X806Y1061D01*
X287Y1060D02*
X294Y1060D01*
X799Y1060D02*
X806Y1060D01*
X287Y1059D02*
X294Y1059D01*
X799Y1059D02*
X806Y1059D01*
X287Y1058D02*
X294Y1058D01*
X799Y1058D02*
X806Y1058D01*
X287Y1057D02*
X294Y1057D01*
X799Y1057D02*
X806Y1057D01*
X287Y1056D02*
X294Y1056D01*
X799Y1056D02*
X806Y1056D01*
X287Y1055D02*
X294Y1055D01*
X799Y1055D02*
X806Y1055D01*
X287Y1054D02*
X294Y1054D01*
X799Y1054D02*
X806Y1054D01*
X287Y1053D02*
X294Y1053D01*
X799Y1053D02*
X806Y1053D01*
X287Y1052D02*
X294Y1052D01*
X799Y1052D02*
X806Y1052D01*
X287Y1051D02*
X294Y1051D01*
X799Y1051D02*
X806Y1051D01*
X287Y1050D02*
X294Y1050D01*
X799Y1050D02*
X806Y1050D01*
X287Y1049D02*
X294Y1049D01*
X799Y1049D02*
X806Y1049D01*
X287Y1048D02*
X294Y1048D01*
X799Y1048D02*
X806Y1048D01*
X287Y1047D02*
X294Y1047D01*
X799Y1047D02*
X806Y1047D01*
X287Y1046D02*
X294Y1046D01*
X799Y1046D02*
X806Y1046D01*
X287Y1045D02*
X294Y1045D01*
X799Y1045D02*
X806Y1045D01*
X287Y1044D02*
X294Y1044D01*
X799Y1044D02*
X806Y1044D01*
X287Y1043D02*
X294Y1043D01*
X799Y1043D02*
X806Y1043D01*
X287Y1042D02*
X294Y1042D01*
X799Y1042D02*
X806Y1042D01*
X287Y1041D02*
X294Y1041D01*
X799Y1041D02*
X806Y1041D01*
X287Y1040D02*
X294Y1040D01*
X799Y1040D02*
X806Y1040D01*
X287Y1039D02*
X294Y1039D01*
X799Y1039D02*
X806Y1039D01*
X287Y1038D02*
X294Y1038D01*
X799Y1038D02*
X806Y1038D01*
X287Y1037D02*
X294Y1037D01*
X799Y1037D02*
X806Y1037D01*
X287Y1036D02*
X294Y1036D01*
X799Y1036D02*
X806Y1036D01*
X287Y1035D02*
X294Y1035D01*
X799Y1035D02*
X806Y1035D01*
X287Y1034D02*
X294Y1034D01*
X799Y1034D02*
X806Y1034D01*
X287Y1033D02*
X294Y1033D01*
X799Y1033D02*
X806Y1033D01*
X287Y1032D02*
X294Y1032D01*
X799Y1032D02*
X806Y1032D01*
X287Y1031D02*
X294Y1031D01*
X799Y1031D02*
X806Y1031D01*
X287Y1030D02*
X294Y1030D01*
X799Y1030D02*
X806Y1030D01*
X287Y1029D02*
X294Y1029D01*
X799Y1029D02*
X806Y1029D01*
X287Y1028D02*
X294Y1028D01*
X799Y1028D02*
X806Y1028D01*
X287Y1027D02*
X294Y1027D01*
X799Y1027D02*
X806Y1027D01*
X287Y1026D02*
X294Y1026D01*
X799Y1026D02*
X806Y1026D01*
X287Y1025D02*
X294Y1025D01*
X799Y1025D02*
X806Y1025D01*
X287Y1024D02*
X294Y1024D01*
X799Y1024D02*
X806Y1024D01*
X287Y1023D02*
X294Y1023D01*
X799Y1023D02*
X806Y1023D01*
X287Y1022D02*
X294Y1022D01*
X799Y1022D02*
X806Y1022D01*
X287Y1021D02*
X294Y1021D01*
X799Y1021D02*
X806Y1021D01*
X287Y1020D02*
X294Y1020D01*
X799Y1020D02*
X806Y1020D01*
X287Y1019D02*
X294Y1019D01*
X799Y1019D02*
X806Y1019D01*
X287Y1018D02*
X294Y1018D01*
X799Y1018D02*
X806Y1018D01*
X287Y1017D02*
X294Y1017D01*
X799Y1017D02*
X806Y1017D01*
X287Y1016D02*
X294Y1016D01*
X799Y1016D02*
X806Y1016D01*
X287Y1015D02*
X294Y1015D01*
X799Y1015D02*
X806Y1015D01*
X287Y1014D02*
X294Y1014D01*
X799Y1014D02*
X806Y1014D01*
X287Y1013D02*
X294Y1013D01*
X799Y1013D02*
X806Y1013D01*
X287Y1012D02*
X294Y1012D01*
X799Y1012D02*
X806Y1012D01*
X287Y1011D02*
X294Y1011D01*
X799Y1011D02*
X806Y1011D01*
X287Y1010D02*
X294Y1010D01*
X799Y1010D02*
X806Y1010D01*
X287Y1009D02*
X294Y1009D01*
X799Y1009D02*
X806Y1009D01*
X81Y1008D02*
X99Y1008D01*
X287Y1008D02*
X294Y1008D01*
X799Y1008D02*
X806Y1008D01*
X956Y1008D02*
X974Y1008D01*
X1013Y1008D02*
X1030Y1008D01*
X80Y1007D02*
X99Y1007D01*
X287Y1007D02*
X294Y1007D01*
X799Y1007D02*
X806Y1007D01*
X955Y1007D02*
X974Y1007D01*
X1012Y1007D02*
X1031Y1007D01*
X79Y1006D02*
X99Y1006D01*
X287Y1006D02*
X294Y1006D01*
X799Y1006D02*
X806Y1006D01*
X955Y1006D02*
X974Y1006D01*
X1012Y1006D02*
X1031Y1006D01*
X79Y1005D02*
X99Y1005D01*
X287Y1005D02*
X294Y1005D01*
X799Y1005D02*
X806Y1005D01*
X955Y1005D02*
X974Y1005D01*
X1012Y1005D02*
X1031Y1005D01*
X79Y1004D02*
X99Y1004D01*
X287Y1004D02*
X294Y1004D01*
X799Y1004D02*
X806Y1004D01*
X955Y1004D02*
X974Y1004D01*
X1012Y1004D02*
X1031Y1004D01*
X80Y1003D02*
X99Y1003D01*
X287Y1003D02*
X294Y1003D01*
X799Y1003D02*
X806Y1003D01*
X955Y1003D02*
X974Y1003D01*
X1012Y1003D02*
X1031Y1003D01*
X81Y1002D02*
X99Y1002D01*
X287Y1002D02*
X294Y1002D01*
X799Y1002D02*
X806Y1002D01*
X957Y1002D02*
X974Y1002D01*
X1012Y1002D02*
X1031Y1002D01*
X93Y1001D02*
X99Y1001D01*
X287Y1001D02*
X294Y1001D01*
X799Y1001D02*
X806Y1001D01*
X968Y1001D02*
X974Y1001D01*
X1012Y1001D02*
X1018Y1001D01*
X1025Y1001D02*
X1031Y1001D01*
X93Y1000D02*
X99Y1000D01*
X287Y1000D02*
X294Y1000D01*
X799Y1000D02*
X806Y1000D01*
X968Y1000D02*
X974Y1000D01*
X1012Y1000D02*
X1018Y1000D01*
X1025Y1000D02*
X1031Y1000D01*
X93Y999D02*
X99Y999D01*
X287Y999D02*
X294Y999D01*
X799Y999D02*
X806Y999D01*
X968Y999D02*
X974Y999D01*
X1012Y999D02*
X1018Y999D01*
X1025Y999D02*
X1031Y999D01*
X93Y998D02*
X99Y998D01*
X287Y998D02*
X294Y998D01*
X799Y998D02*
X806Y998D01*
X968Y998D02*
X974Y998D01*
X1012Y998D02*
X1018Y998D01*
X1025Y998D02*
X1031Y998D01*
X93Y997D02*
X99Y997D01*
X287Y997D02*
X294Y997D01*
X799Y997D02*
X806Y997D01*
X968Y997D02*
X974Y997D01*
X1012Y997D02*
X1018Y997D01*
X1025Y997D02*
X1031Y997D01*
X93Y996D02*
X99Y996D01*
X287Y996D02*
X294Y996D01*
X799Y996D02*
X806Y996D01*
X968Y996D02*
X974Y996D01*
X1012Y996D02*
X1018Y996D01*
X1025Y996D02*
X1031Y996D01*
X93Y995D02*
X99Y995D01*
X287Y995D02*
X294Y995D01*
X799Y995D02*
X806Y995D01*
X968Y995D02*
X974Y995D01*
X1012Y995D02*
X1018Y995D01*
X1025Y995D02*
X1031Y995D01*
X93Y994D02*
X99Y994D01*
X287Y994D02*
X294Y994D01*
X799Y994D02*
X806Y994D01*
X968Y994D02*
X974Y994D01*
X1012Y994D02*
X1018Y994D01*
X1025Y994D02*
X1031Y994D01*
X93Y993D02*
X99Y993D01*
X287Y993D02*
X294Y993D01*
X799Y993D02*
X806Y993D01*
X968Y993D02*
X974Y993D01*
X1012Y993D02*
X1018Y993D01*
X1025Y993D02*
X1031Y993D01*
X93Y992D02*
X99Y992D01*
X287Y992D02*
X294Y992D01*
X799Y992D02*
X806Y992D01*
X968Y992D02*
X974Y992D01*
X1012Y992D02*
X1018Y992D01*
X1025Y992D02*
X1031Y992D01*
X93Y991D02*
X99Y991D01*
X287Y991D02*
X294Y991D01*
X799Y991D02*
X806Y991D01*
X968Y991D02*
X974Y991D01*
X1012Y991D02*
X1018Y991D01*
X1025Y991D02*
X1031Y991D01*
X93Y990D02*
X99Y990D01*
X287Y990D02*
X294Y990D01*
X799Y990D02*
X806Y990D01*
X968Y990D02*
X974Y990D01*
X1012Y990D02*
X1018Y990D01*
X1025Y990D02*
X1031Y990D01*
X93Y989D02*
X99Y989D01*
X287Y989D02*
X294Y989D01*
X799Y989D02*
X806Y989D01*
X968Y989D02*
X974Y989D01*
X1012Y989D02*
X1018Y989D01*
X1025Y989D02*
X1031Y989D01*
X93Y988D02*
X99Y988D01*
X287Y988D02*
X294Y988D01*
X799Y988D02*
X806Y988D01*
X968Y988D02*
X974Y988D01*
X1012Y988D02*
X1018Y988D01*
X1025Y988D02*
X1031Y988D01*
X93Y987D02*
X99Y987D01*
X287Y987D02*
X294Y987D01*
X799Y987D02*
X806Y987D01*
X968Y987D02*
X974Y987D01*
X1012Y987D02*
X1018Y987D01*
X1025Y987D02*
X1031Y987D01*
X93Y986D02*
X99Y986D01*
X287Y986D02*
X294Y986D01*
X799Y986D02*
X806Y986D01*
X968Y986D02*
X974Y986D01*
X1012Y986D02*
X1018Y986D01*
X1025Y986D02*
X1031Y986D01*
X93Y985D02*
X99Y985D01*
X287Y985D02*
X294Y985D01*
X799Y985D02*
X806Y985D01*
X968Y985D02*
X974Y985D01*
X1011Y985D02*
X1032Y985D01*
X93Y984D02*
X99Y984D01*
X287Y984D02*
X294Y984D01*
X799Y984D02*
X806Y984D01*
X968Y984D02*
X974Y984D01*
X1008Y984D02*
X1035Y984D01*
X93Y983D02*
X99Y983D01*
X287Y983D02*
X294Y983D01*
X799Y983D02*
X806Y983D01*
X968Y983D02*
X974Y983D01*
X1007Y983D02*
X1036Y983D01*
X93Y982D02*
X99Y982D01*
X287Y982D02*
X294Y982D01*
X799Y982D02*
X806Y982D01*
X968Y982D02*
X974Y982D01*
X1006Y982D02*
X1037Y982D01*
X93Y981D02*
X99Y981D01*
X287Y981D02*
X294Y981D01*
X799Y981D02*
X806Y981D01*
X968Y981D02*
X974Y981D01*
X1006Y981D02*
X1038Y981D01*
X93Y980D02*
X99Y980D01*
X287Y980D02*
X294Y980D01*
X799Y980D02*
X806Y980D01*
X968Y980D02*
X974Y980D01*
X1005Y980D02*
X1038Y980D01*
X93Y979D02*
X99Y979D01*
X109Y979D02*
X110Y979D01*
X287Y979D02*
X294Y979D01*
X799Y979D02*
X806Y979D01*
X968Y979D02*
X974Y979D01*
X985Y979D02*
X986Y979D01*
X1005Y979D02*
X1038Y979D01*
X93Y978D02*
X99Y978D01*
X108Y978D02*
X112Y978D01*
X287Y978D02*
X294Y978D01*
X799Y978D02*
X806Y978D01*
X968Y978D02*
X974Y978D01*
X983Y978D02*
X987Y978D01*
X1005Y978D02*
X1011Y978D01*
X1032Y978D02*
X1038Y978D01*
X93Y977D02*
X99Y977D01*
X107Y977D02*
X113Y977D01*
X287Y977D02*
X294Y977D01*
X799Y977D02*
X806Y977D01*
X968Y977D02*
X974Y977D01*
X983Y977D02*
X988Y977D01*
X1005Y977D02*
X1011Y977D01*
X1032Y977D02*
X1038Y977D01*
X93Y976D02*
X99Y976D01*
X107Y976D02*
X113Y976D01*
X287Y976D02*
X294Y976D01*
X799Y976D02*
X806Y976D01*
X968Y976D02*
X974Y976D01*
X982Y976D02*
X988Y976D01*
X1005Y976D02*
X1011Y976D01*
X1032Y976D02*
X1038Y976D01*
X93Y975D02*
X99Y975D01*
X107Y975D02*
X113Y975D01*
X287Y975D02*
X294Y975D01*
X799Y975D02*
X806Y975D01*
X968Y975D02*
X974Y975D01*
X982Y975D02*
X988Y975D01*
X1005Y975D02*
X1011Y975D01*
X1032Y975D02*
X1038Y975D01*
X93Y974D02*
X99Y974D01*
X107Y974D02*
X113Y974D01*
X287Y974D02*
X294Y974D01*
X799Y974D02*
X806Y974D01*
X968Y974D02*
X974Y974D01*
X982Y974D02*
X988Y974D01*
X1005Y974D02*
X1011Y974D01*
X1032Y974D02*
X1038Y974D01*
X93Y973D02*
X99Y973D01*
X107Y973D02*
X113Y973D01*
X287Y973D02*
X294Y973D01*
X799Y973D02*
X806Y973D01*
X968Y973D02*
X974Y973D01*
X982Y973D02*
X988Y973D01*
X1005Y973D02*
X1011Y973D01*
X1032Y973D02*
X1038Y973D01*
X93Y972D02*
X99Y972D01*
X107Y972D02*
X113Y972D01*
X287Y972D02*
X294Y972D01*
X799Y972D02*
X806Y972D01*
X968Y972D02*
X974Y972D01*
X982Y972D02*
X988Y972D01*
X1005Y972D02*
X1011Y972D01*
X1032Y972D02*
X1038Y972D01*
X93Y971D02*
X99Y971D01*
X107Y971D02*
X113Y971D01*
X287Y971D02*
X294Y971D01*
X799Y971D02*
X806Y971D01*
X968Y971D02*
X974Y971D01*
X982Y971D02*
X988Y971D01*
X1005Y971D02*
X1011Y971D01*
X1032Y971D02*
X1038Y971D01*
X93Y970D02*
X99Y970D01*
X107Y970D02*
X113Y970D01*
X287Y970D02*
X294Y970D01*
X799Y970D02*
X806Y970D01*
X968Y970D02*
X974Y970D01*
X982Y970D02*
X988Y970D01*
X1005Y970D02*
X1011Y970D01*
X1032Y970D02*
X1038Y970D01*
X93Y969D02*
X99Y969D01*
X107Y969D02*
X113Y969D01*
X287Y969D02*
X294Y969D01*
X799Y969D02*
X806Y969D01*
X968Y969D02*
X974Y969D01*
X982Y969D02*
X988Y969D01*
X1005Y969D02*
X1011Y969D01*
X1032Y969D02*
X1038Y969D01*
X93Y968D02*
X99Y968D01*
X107Y968D02*
X113Y968D01*
X287Y968D02*
X294Y968D01*
X799Y968D02*
X806Y968D01*
X968Y968D02*
X974Y968D01*
X982Y968D02*
X988Y968D01*
X1005Y968D02*
X1011Y968D01*
X1032Y968D02*
X1038Y968D01*
X93Y967D02*
X99Y967D01*
X107Y967D02*
X113Y967D01*
X287Y967D02*
X294Y967D01*
X799Y967D02*
X806Y967D01*
X968Y967D02*
X974Y967D01*
X982Y967D02*
X988Y967D01*
X1005Y967D02*
X1011Y967D01*
X1032Y967D02*
X1038Y967D01*
X93Y966D02*
X99Y966D01*
X107Y966D02*
X113Y966D01*
X287Y966D02*
X294Y966D01*
X799Y966D02*
X806Y966D01*
X968Y966D02*
X974Y966D01*
X982Y966D02*
X988Y966D01*
X1005Y966D02*
X1011Y966D01*
X1032Y966D02*
X1038Y966D01*
X93Y965D02*
X99Y965D01*
X107Y965D02*
X113Y965D01*
X287Y965D02*
X294Y965D01*
X799Y965D02*
X806Y965D01*
X968Y965D02*
X974Y965D01*
X982Y965D02*
X988Y965D01*
X1005Y965D02*
X1011Y965D01*
X1032Y965D02*
X1038Y965D01*
X93Y964D02*
X99Y964D01*
X107Y964D02*
X113Y964D01*
X287Y964D02*
X294Y964D01*
X799Y964D02*
X806Y964D01*
X968Y964D02*
X974Y964D01*
X982Y964D02*
X988Y964D01*
X1005Y964D02*
X1011Y964D01*
X1032Y964D02*
X1038Y964D01*
X93Y963D02*
X99Y963D01*
X107Y963D02*
X113Y963D01*
X287Y963D02*
X294Y963D01*
X799Y963D02*
X806Y963D01*
X968Y963D02*
X974Y963D01*
X982Y963D02*
X988Y963D01*
X1005Y963D02*
X1011Y963D01*
X1032Y963D02*
X1038Y963D01*
X93Y962D02*
X99Y962D01*
X107Y962D02*
X113Y962D01*
X287Y962D02*
X294Y962D01*
X799Y962D02*
X806Y962D01*
X968Y962D02*
X974Y962D01*
X982Y962D02*
X988Y962D01*
X1005Y962D02*
X1011Y962D01*
X1032Y962D02*
X1038Y962D01*
X81Y961D02*
X113Y961D01*
X287Y961D02*
X294Y961D01*
X799Y961D02*
X806Y961D01*
X957Y961D02*
X988Y961D01*
X1005Y961D02*
X1038Y961D01*
X80Y960D02*
X113Y960D01*
X287Y960D02*
X294Y960D01*
X799Y960D02*
X806Y960D01*
X955Y960D02*
X988Y960D01*
X1005Y960D02*
X1038Y960D01*
X79Y959D02*
X113Y959D01*
X287Y959D02*
X294Y959D01*
X799Y959D02*
X806Y959D01*
X955Y959D02*
X988Y959D01*
X1005Y959D02*
X1038Y959D01*
X79Y958D02*
X113Y958D01*
X287Y958D02*
X294Y958D01*
X799Y958D02*
X806Y958D01*
X955Y958D02*
X988Y958D01*
X1006Y958D02*
X1037Y958D01*
X79Y957D02*
X113Y957D01*
X287Y957D02*
X294Y957D01*
X799Y957D02*
X806Y957D01*
X955Y957D02*
X988Y957D01*
X1007Y957D02*
X1037Y957D01*
X80Y956D02*
X112Y956D01*
X287Y956D02*
X294Y956D01*
X799Y956D02*
X806Y956D01*
X955Y956D02*
X988Y956D01*
X1008Y956D02*
X1036Y956D01*
X81Y955D02*
X111Y955D01*
X287Y955D02*
X294Y955D01*
X799Y955D02*
X806Y955D01*
X956Y955D02*
X986Y955D01*
X1009Y955D02*
X1034Y955D01*
X287Y954D02*
X294Y954D01*
X799Y954D02*
X806Y954D01*
X287Y953D02*
X294Y953D01*
X799Y953D02*
X806Y953D01*
X287Y952D02*
X294Y952D01*
X799Y952D02*
X806Y952D01*
X287Y951D02*
X294Y951D01*
X799Y951D02*
X806Y951D01*
X287Y950D02*
X294Y950D01*
X799Y950D02*
X806Y950D01*
X287Y949D02*
X294Y949D01*
X799Y949D02*
X806Y949D01*
X287Y948D02*
X294Y948D01*
X799Y948D02*
X806Y948D01*
X287Y947D02*
X294Y947D01*
X799Y947D02*
X806Y947D01*
X287Y946D02*
X294Y946D01*
X799Y946D02*
X806Y946D01*
X287Y945D02*
X294Y945D01*
X799Y945D02*
X806Y945D01*
X287Y944D02*
X294Y944D01*
X799Y944D02*
X806Y944D01*
X287Y943D02*
X294Y943D01*
X799Y943D02*
X806Y943D01*
X287Y942D02*
X294Y942D01*
X799Y942D02*
X806Y942D01*
X287Y941D02*
X294Y941D01*
X799Y941D02*
X806Y941D01*
X287Y940D02*
X294Y940D01*
X799Y940D02*
X806Y940D01*
X287Y939D02*
X294Y939D01*
X799Y939D02*
X806Y939D01*
X287Y938D02*
X294Y938D01*
X799Y938D02*
X806Y938D01*
X287Y937D02*
X294Y937D01*
X799Y937D02*
X806Y937D01*
X287Y936D02*
X294Y936D01*
X799Y936D02*
X806Y936D01*
X287Y935D02*
X294Y935D01*
X799Y935D02*
X806Y935D01*
X287Y934D02*
X294Y934D01*
X799Y934D02*
X806Y934D01*
X287Y933D02*
X294Y933D01*
X799Y933D02*
X806Y933D01*
X287Y932D02*
X294Y932D01*
X431Y932D02*
X449Y932D01*
X482Y932D02*
X485Y932D01*
X509Y932D02*
X513Y932D01*
X530Y932D02*
X539Y932D01*
X556Y932D02*
X564Y932D01*
X582Y932D02*
X600Y932D01*
X632Y932D02*
X636Y932D01*
X799Y932D02*
X806Y932D01*
X287Y931D02*
X294Y931D01*
X430Y931D02*
X451Y931D01*
X481Y931D02*
X486Y931D01*
X508Y931D02*
X513Y931D01*
X530Y931D02*
X540Y931D01*
X555Y931D02*
X564Y931D01*
X581Y931D02*
X600Y931D01*
X631Y931D02*
X636Y931D01*
X799Y931D02*
X806Y931D01*
X287Y930D02*
X294Y930D01*
X430Y930D02*
X452Y930D01*
X480Y930D02*
X486Y930D01*
X508Y930D02*
X514Y930D01*
X530Y930D02*
X540Y930D01*
X554Y930D02*
X564Y930D01*
X581Y930D02*
X600Y930D01*
X631Y930D02*
X637Y930D01*
X799Y930D02*
X806Y930D01*
X287Y929D02*
X294Y929D01*
X430Y929D02*
X453Y929D01*
X480Y929D02*
X486Y929D01*
X508Y929D02*
X514Y929D01*
X530Y929D02*
X541Y929D01*
X553Y929D02*
X564Y929D01*
X581Y929D02*
X600Y929D01*
X631Y929D02*
X637Y929D01*
X799Y929D02*
X806Y929D01*
X287Y928D02*
X294Y928D01*
X430Y928D02*
X454Y928D01*
X480Y928D02*
X486Y928D01*
X508Y928D02*
X514Y928D01*
X530Y928D02*
X542Y928D01*
X553Y928D02*
X564Y928D01*
X581Y928D02*
X600Y928D01*
X631Y928D02*
X637Y928D01*
X799Y928D02*
X806Y928D01*
X287Y927D02*
X294Y927D01*
X431Y927D02*
X455Y927D01*
X480Y927D02*
X486Y927D01*
X508Y927D02*
X514Y927D01*
X530Y927D02*
X542Y927D01*
X552Y927D02*
X564Y927D01*
X582Y927D02*
X600Y927D01*
X631Y927D02*
X637Y927D01*
X799Y927D02*
X806Y927D01*
X287Y926D02*
X294Y926D01*
X433Y926D02*
X455Y926D01*
X480Y926D02*
X486Y926D01*
X508Y926D02*
X514Y926D01*
X530Y926D02*
X543Y926D01*
X551Y926D02*
X564Y926D01*
X583Y926D02*
X600Y926D01*
X631Y926D02*
X637Y926D01*
X799Y926D02*
X806Y926D01*
X287Y925D02*
X294Y925D01*
X437Y925D02*
X443Y925D01*
X449Y925D02*
X456Y925D01*
X480Y925D02*
X486Y925D01*
X508Y925D02*
X514Y925D01*
X530Y925D02*
X544Y925D01*
X551Y925D02*
X564Y925D01*
X594Y925D02*
X600Y925D01*
X631Y925D02*
X637Y925D01*
X799Y925D02*
X806Y925D01*
X287Y924D02*
X294Y924D01*
X437Y924D02*
X443Y924D01*
X449Y924D02*
X456Y924D01*
X480Y924D02*
X486Y924D01*
X508Y924D02*
X514Y924D01*
X530Y924D02*
X544Y924D01*
X550Y924D02*
X564Y924D01*
X594Y924D02*
X600Y924D01*
X631Y924D02*
X637Y924D01*
X799Y924D02*
X806Y924D01*
X287Y923D02*
X294Y923D01*
X437Y923D02*
X443Y923D01*
X450Y923D02*
X457Y923D01*
X480Y923D02*
X486Y923D01*
X508Y923D02*
X514Y923D01*
X530Y923D02*
X545Y923D01*
X549Y923D02*
X564Y923D01*
X594Y923D02*
X600Y923D01*
X631Y923D02*
X637Y923D01*
X799Y923D02*
X806Y923D01*
X287Y922D02*
X294Y922D01*
X437Y922D02*
X443Y922D01*
X450Y922D02*
X457Y922D01*
X480Y922D02*
X486Y922D01*
X508Y922D02*
X514Y922D01*
X530Y922D02*
X536Y922D01*
X538Y922D02*
X546Y922D01*
X549Y922D02*
X556Y922D01*
X558Y922D02*
X564Y922D01*
X594Y922D02*
X600Y922D01*
X631Y922D02*
X637Y922D01*
X799Y922D02*
X806Y922D01*
X287Y921D02*
X294Y921D01*
X437Y921D02*
X443Y921D01*
X451Y921D02*
X458Y921D01*
X480Y921D02*
X486Y921D01*
X508Y921D02*
X514Y921D01*
X530Y921D02*
X536Y921D01*
X539Y921D02*
X555Y921D01*
X558Y921D02*
X564Y921D01*
X594Y921D02*
X600Y921D01*
X631Y921D02*
X637Y921D01*
X799Y921D02*
X806Y921D01*
X287Y920D02*
X294Y920D01*
X437Y920D02*
X443Y920D01*
X451Y920D02*
X458Y920D01*
X480Y920D02*
X486Y920D01*
X508Y920D02*
X514Y920D01*
X530Y920D02*
X536Y920D01*
X540Y920D02*
X555Y920D01*
X558Y920D02*
X564Y920D01*
X594Y920D02*
X600Y920D01*
X631Y920D02*
X637Y920D01*
X799Y920D02*
X806Y920D01*
X287Y919D02*
X294Y919D01*
X437Y919D02*
X443Y919D01*
X452Y919D02*
X459Y919D01*
X480Y919D02*
X486Y919D01*
X508Y919D02*
X514Y919D01*
X530Y919D02*
X536Y919D01*
X540Y919D02*
X554Y919D01*
X558Y919D02*
X564Y919D01*
X594Y919D02*
X600Y919D01*
X631Y919D02*
X637Y919D01*
X799Y919D02*
X806Y919D01*
X287Y918D02*
X294Y918D01*
X437Y918D02*
X443Y918D01*
X452Y918D02*
X459Y918D01*
X480Y918D02*
X486Y918D01*
X508Y918D02*
X514Y918D01*
X530Y918D02*
X536Y918D01*
X541Y918D02*
X553Y918D01*
X558Y918D02*
X564Y918D01*
X594Y918D02*
X600Y918D01*
X631Y918D02*
X637Y918D01*
X658Y918D02*
X658Y918D01*
X799Y918D02*
X806Y918D01*
X287Y917D02*
X294Y917D01*
X437Y917D02*
X443Y917D01*
X453Y917D02*
X460Y917D01*
X480Y917D02*
X486Y917D01*
X508Y917D02*
X514Y917D01*
X530Y917D02*
X536Y917D01*
X542Y917D02*
X553Y917D01*
X558Y917D02*
X564Y917D01*
X594Y917D02*
X600Y917D01*
X631Y917D02*
X637Y917D01*
X656Y917D02*
X660Y917D01*
X799Y917D02*
X806Y917D01*
X287Y916D02*
X294Y916D01*
X437Y916D02*
X443Y916D01*
X454Y916D02*
X460Y916D01*
X480Y916D02*
X486Y916D01*
X508Y916D02*
X514Y916D01*
X530Y916D02*
X536Y916D01*
X542Y916D02*
X552Y916D01*
X558Y916D02*
X564Y916D01*
X594Y916D02*
X600Y916D01*
X631Y916D02*
X637Y916D01*
X655Y916D02*
X661Y916D01*
X799Y916D02*
X806Y916D01*
X287Y915D02*
X294Y915D01*
X437Y915D02*
X443Y915D01*
X454Y915D02*
X461Y915D01*
X480Y915D02*
X486Y915D01*
X497Y915D02*
X497Y915D01*
X508Y915D02*
X514Y915D01*
X530Y915D02*
X536Y915D01*
X543Y915D02*
X551Y915D01*
X558Y915D02*
X564Y915D01*
X594Y915D02*
X600Y915D01*
X631Y915D02*
X637Y915D01*
X653Y915D02*
X661Y915D01*
X799Y915D02*
X806Y915D01*
X287Y914D02*
X294Y914D01*
X437Y914D02*
X443Y914D01*
X455Y914D02*
X461Y914D01*
X480Y914D02*
X486Y914D01*
X495Y914D02*
X499Y914D01*
X508Y914D02*
X514Y914D01*
X530Y914D02*
X536Y914D01*
X544Y914D02*
X551Y914D01*
X558Y914D02*
X564Y914D01*
X594Y914D02*
X600Y914D01*
X631Y914D02*
X637Y914D01*
X652Y914D02*
X661Y914D01*
X799Y914D02*
X806Y914D01*
X287Y913D02*
X294Y913D01*
X437Y913D02*
X443Y913D01*
X455Y913D02*
X462Y913D01*
X480Y913D02*
X486Y913D01*
X494Y913D02*
X500Y913D01*
X508Y913D02*
X514Y913D01*
X530Y913D02*
X536Y913D01*
X544Y913D02*
X550Y913D01*
X558Y913D02*
X564Y913D01*
X594Y913D02*
X600Y913D01*
X631Y913D02*
X637Y913D01*
X651Y913D02*
X660Y913D01*
X799Y913D02*
X806Y913D01*
X287Y912D02*
X294Y912D01*
X437Y912D02*
X443Y912D01*
X456Y912D02*
X462Y912D01*
X480Y912D02*
X486Y912D01*
X494Y912D02*
X500Y912D01*
X508Y912D02*
X514Y912D01*
X530Y912D02*
X536Y912D01*
X544Y912D02*
X550Y912D01*
X558Y912D02*
X564Y912D01*
X594Y912D02*
X600Y912D01*
X631Y912D02*
X637Y912D01*
X650Y912D02*
X660Y912D01*
X799Y912D02*
X806Y912D01*
X287Y911D02*
X294Y911D01*
X437Y911D02*
X443Y911D01*
X456Y911D02*
X463Y911D01*
X480Y911D02*
X486Y911D01*
X494Y911D02*
X500Y911D01*
X508Y911D02*
X514Y911D01*
X530Y911D02*
X536Y911D01*
X544Y911D02*
X550Y911D01*
X558Y911D02*
X564Y911D01*
X594Y911D02*
X600Y911D01*
X631Y911D02*
X637Y911D01*
X649Y911D02*
X659Y911D01*
X799Y911D02*
X806Y911D01*
X287Y910D02*
X294Y910D01*
X437Y910D02*
X443Y910D01*
X457Y910D02*
X463Y910D01*
X480Y910D02*
X486Y910D01*
X494Y910D02*
X500Y910D01*
X508Y910D02*
X514Y910D01*
X530Y910D02*
X536Y910D01*
X545Y910D02*
X550Y910D01*
X558Y910D02*
X564Y910D01*
X594Y910D02*
X600Y910D01*
X631Y910D02*
X637Y910D01*
X648Y910D02*
X657Y910D01*
X799Y910D02*
X806Y910D01*
X287Y909D02*
X294Y909D01*
X437Y909D02*
X443Y909D01*
X457Y909D02*
X463Y909D01*
X480Y909D02*
X486Y909D01*
X494Y909D02*
X500Y909D01*
X508Y909D02*
X514Y909D01*
X530Y909D02*
X536Y909D01*
X546Y909D02*
X549Y909D01*
X558Y909D02*
X564Y909D01*
X594Y909D02*
X600Y909D01*
X631Y909D02*
X637Y909D01*
X646Y909D02*
X656Y909D01*
X799Y909D02*
X806Y909D01*
X287Y908D02*
X294Y908D01*
X437Y908D02*
X443Y908D01*
X457Y908D02*
X463Y908D01*
X480Y908D02*
X486Y908D01*
X494Y908D02*
X500Y908D01*
X508Y908D02*
X514Y908D01*
X530Y908D02*
X536Y908D01*
X558Y908D02*
X564Y908D01*
X594Y908D02*
X600Y908D01*
X631Y908D02*
X637Y908D01*
X645Y908D02*
X655Y908D01*
X799Y908D02*
X806Y908D01*
X287Y907D02*
X294Y907D01*
X437Y907D02*
X443Y907D01*
X457Y907D02*
X464Y907D01*
X480Y907D02*
X486Y907D01*
X494Y907D02*
X500Y907D01*
X508Y907D02*
X514Y907D01*
X530Y907D02*
X536Y907D01*
X558Y907D02*
X564Y907D01*
X594Y907D02*
X600Y907D01*
X631Y907D02*
X637Y907D01*
X644Y907D02*
X654Y907D01*
X799Y907D02*
X806Y907D01*
X287Y906D02*
X294Y906D01*
X437Y906D02*
X443Y906D01*
X458Y906D02*
X464Y906D01*
X480Y906D02*
X486Y906D01*
X494Y906D02*
X500Y906D01*
X508Y906D02*
X514Y906D01*
X530Y906D02*
X536Y906D01*
X558Y906D02*
X564Y906D01*
X594Y906D02*
X600Y906D01*
X631Y906D02*
X637Y906D01*
X643Y906D02*
X653Y906D01*
X799Y906D02*
X806Y906D01*
X287Y905D02*
X294Y905D01*
X437Y905D02*
X443Y905D01*
X457Y905D02*
X464Y905D01*
X480Y905D02*
X486Y905D01*
X494Y905D02*
X500Y905D01*
X508Y905D02*
X514Y905D01*
X530Y905D02*
X536Y905D01*
X558Y905D02*
X564Y905D01*
X594Y905D02*
X600Y905D01*
X631Y905D02*
X637Y905D01*
X642Y905D02*
X652Y905D01*
X799Y905D02*
X806Y905D01*
X287Y904D02*
X294Y904D01*
X437Y904D02*
X443Y904D01*
X457Y904D02*
X463Y904D01*
X480Y904D02*
X486Y904D01*
X494Y904D02*
X500Y904D01*
X508Y904D02*
X514Y904D01*
X530Y904D02*
X536Y904D01*
X558Y904D02*
X564Y904D01*
X594Y904D02*
X600Y904D01*
X631Y904D02*
X637Y904D01*
X641Y904D02*
X650Y904D01*
X799Y904D02*
X806Y904D01*
X287Y903D02*
X294Y903D01*
X437Y903D02*
X443Y903D01*
X457Y903D02*
X463Y903D01*
X480Y903D02*
X486Y903D01*
X494Y903D02*
X500Y903D01*
X508Y903D02*
X514Y903D01*
X530Y903D02*
X536Y903D01*
X558Y903D02*
X564Y903D01*
X594Y903D02*
X600Y903D01*
X610Y903D02*
X612Y903D01*
X631Y903D02*
X637Y903D01*
X639Y903D02*
X649Y903D01*
X799Y903D02*
X806Y903D01*
X287Y902D02*
X294Y902D01*
X437Y902D02*
X443Y902D01*
X457Y902D02*
X463Y902D01*
X480Y902D02*
X486Y902D01*
X494Y902D02*
X500Y902D01*
X508Y902D02*
X514Y902D01*
X530Y902D02*
X536Y902D01*
X558Y902D02*
X564Y902D01*
X594Y902D02*
X600Y902D01*
X609Y902D02*
X613Y902D01*
X631Y902D02*
X648Y902D01*
X799Y902D02*
X806Y902D01*
X287Y901D02*
X294Y901D01*
X437Y901D02*
X443Y901D01*
X456Y901D02*
X463Y901D01*
X480Y901D02*
X486Y901D01*
X494Y901D02*
X500Y901D01*
X508Y901D02*
X514Y901D01*
X530Y901D02*
X536Y901D01*
X558Y901D02*
X564Y901D01*
X594Y901D02*
X600Y901D01*
X608Y901D02*
X614Y901D01*
X631Y901D02*
X647Y901D01*
X799Y901D02*
X806Y901D01*
X287Y900D02*
X294Y900D01*
X437Y900D02*
X443Y900D01*
X456Y900D02*
X462Y900D01*
X480Y900D02*
X486Y900D01*
X494Y900D02*
X500Y900D01*
X508Y900D02*
X514Y900D01*
X530Y900D02*
X536Y900D01*
X558Y900D02*
X564Y900D01*
X594Y900D02*
X600Y900D01*
X608Y900D02*
X614Y900D01*
X631Y900D02*
X646Y900D01*
X799Y900D02*
X806Y900D01*
X287Y899D02*
X294Y899D01*
X437Y899D02*
X443Y899D01*
X455Y899D02*
X462Y899D01*
X480Y899D02*
X486Y899D01*
X494Y899D02*
X500Y899D01*
X508Y899D02*
X514Y899D01*
X530Y899D02*
X536Y899D01*
X558Y899D02*
X564Y899D01*
X594Y899D02*
X600Y899D01*
X608Y899D02*
X614Y899D01*
X631Y899D02*
X647Y899D01*
X799Y899D02*
X806Y899D01*
X287Y898D02*
X294Y898D01*
X437Y898D02*
X443Y898D01*
X455Y898D02*
X462Y898D01*
X480Y898D02*
X486Y898D01*
X494Y898D02*
X500Y898D01*
X508Y898D02*
X514Y898D01*
X530Y898D02*
X536Y898D01*
X558Y898D02*
X564Y898D01*
X594Y898D02*
X600Y898D01*
X608Y898D02*
X614Y898D01*
X631Y898D02*
X648Y898D01*
X799Y898D02*
X806Y898D01*
X287Y897D02*
X294Y897D01*
X437Y897D02*
X443Y897D01*
X454Y897D02*
X461Y897D01*
X480Y897D02*
X486Y897D01*
X494Y897D02*
X500Y897D01*
X508Y897D02*
X514Y897D01*
X530Y897D02*
X536Y897D01*
X558Y897D02*
X564Y897D01*
X594Y897D02*
X600Y897D01*
X608Y897D02*
X614Y897D01*
X631Y897D02*
X649Y897D01*
X799Y897D02*
X806Y897D01*
X287Y896D02*
X294Y896D01*
X437Y896D02*
X443Y896D01*
X454Y896D02*
X461Y896D01*
X480Y896D02*
X486Y896D01*
X494Y896D02*
X500Y896D01*
X508Y896D02*
X514Y896D01*
X530Y896D02*
X536Y896D01*
X558Y896D02*
X564Y896D01*
X594Y896D02*
X600Y896D01*
X608Y896D02*
X614Y896D01*
X631Y896D02*
X650Y896D01*
X799Y896D02*
X806Y896D01*
X287Y895D02*
X294Y895D01*
X437Y895D02*
X443Y895D01*
X453Y895D02*
X460Y895D01*
X480Y895D02*
X486Y895D01*
X494Y895D02*
X500Y895D01*
X508Y895D02*
X514Y895D01*
X530Y895D02*
X536Y895D01*
X558Y895D02*
X564Y895D01*
X594Y895D02*
X600Y895D01*
X608Y895D02*
X614Y895D01*
X631Y895D02*
X640Y895D01*
X642Y895D02*
X651Y895D01*
X799Y895D02*
X806Y895D01*
X287Y894D02*
X294Y894D01*
X437Y894D02*
X443Y894D01*
X453Y894D02*
X460Y894D01*
X480Y894D02*
X486Y894D01*
X494Y894D02*
X500Y894D01*
X508Y894D02*
X514Y894D01*
X530Y894D02*
X536Y894D01*
X558Y894D02*
X564Y894D01*
X594Y894D02*
X600Y894D01*
X608Y894D02*
X614Y894D01*
X631Y894D02*
X639Y894D01*
X643Y894D02*
X653Y894D01*
X799Y894D02*
X806Y894D01*
X287Y893D02*
X294Y893D01*
X437Y893D02*
X443Y893D01*
X452Y893D02*
X459Y893D01*
X480Y893D02*
X486Y893D01*
X494Y893D02*
X500Y893D01*
X508Y893D02*
X514Y893D01*
X530Y893D02*
X536Y893D01*
X558Y893D02*
X564Y893D01*
X594Y893D02*
X600Y893D01*
X608Y893D02*
X614Y893D01*
X631Y893D02*
X638Y893D01*
X644Y893D02*
X654Y893D01*
X799Y893D02*
X806Y893D01*
X287Y892D02*
X294Y892D01*
X437Y892D02*
X443Y892D01*
X452Y892D02*
X459Y892D01*
X480Y892D02*
X486Y892D01*
X494Y892D02*
X500Y892D01*
X508Y892D02*
X514Y892D01*
X530Y892D02*
X536Y892D01*
X558Y892D02*
X564Y892D01*
X594Y892D02*
X600Y892D01*
X608Y892D02*
X614Y892D01*
X631Y892D02*
X637Y892D01*
X645Y892D02*
X655Y892D01*
X799Y892D02*
X806Y892D01*
X287Y891D02*
X294Y891D01*
X437Y891D02*
X443Y891D01*
X451Y891D02*
X458Y891D01*
X480Y891D02*
X486Y891D01*
X494Y891D02*
X500Y891D01*
X508Y891D02*
X514Y891D01*
X530Y891D02*
X536Y891D01*
X558Y891D02*
X564Y891D01*
X594Y891D02*
X600Y891D01*
X608Y891D02*
X614Y891D01*
X631Y891D02*
X637Y891D01*
X646Y891D02*
X656Y891D01*
X799Y891D02*
X806Y891D01*
X287Y890D02*
X294Y890D01*
X437Y890D02*
X443Y890D01*
X451Y890D02*
X458Y890D01*
X480Y890D02*
X486Y890D01*
X494Y890D02*
X500Y890D01*
X508Y890D02*
X514Y890D01*
X530Y890D02*
X536Y890D01*
X558Y890D02*
X564Y890D01*
X594Y890D02*
X600Y890D01*
X608Y890D02*
X614Y890D01*
X631Y890D02*
X637Y890D01*
X647Y890D02*
X657Y890D01*
X799Y890D02*
X806Y890D01*
X287Y889D02*
X294Y889D01*
X437Y889D02*
X443Y889D01*
X450Y889D02*
X457Y889D01*
X480Y889D02*
X486Y889D01*
X494Y889D02*
X500Y889D01*
X508Y889D02*
X514Y889D01*
X530Y889D02*
X536Y889D01*
X558Y889D02*
X564Y889D01*
X594Y889D02*
X600Y889D01*
X608Y889D02*
X614Y889D01*
X631Y889D02*
X637Y889D01*
X649Y889D02*
X658Y889D01*
X799Y889D02*
X806Y889D01*
X287Y888D02*
X294Y888D01*
X437Y888D02*
X443Y888D01*
X450Y888D02*
X457Y888D01*
X480Y888D02*
X487Y888D01*
X493Y888D02*
X501Y888D01*
X507Y888D02*
X514Y888D01*
X530Y888D02*
X536Y888D01*
X558Y888D02*
X564Y888D01*
X594Y888D02*
X600Y888D01*
X608Y888D02*
X614Y888D01*
X631Y888D02*
X637Y888D01*
X650Y888D02*
X660Y888D01*
X799Y888D02*
X806Y888D01*
X287Y887D02*
X294Y887D01*
X437Y887D02*
X443Y887D01*
X449Y887D02*
X456Y887D01*
X480Y887D02*
X487Y887D01*
X493Y887D02*
X501Y887D01*
X507Y887D02*
X514Y887D01*
X530Y887D02*
X536Y887D01*
X558Y887D02*
X564Y887D01*
X594Y887D02*
X600Y887D01*
X608Y887D02*
X614Y887D01*
X631Y887D02*
X637Y887D01*
X651Y887D02*
X661Y887D01*
X799Y887D02*
X806Y887D01*
X287Y886D02*
X294Y886D01*
X437Y886D02*
X443Y886D01*
X448Y886D02*
X456Y886D01*
X481Y886D02*
X488Y886D01*
X492Y886D02*
X502Y886D01*
X506Y886D02*
X513Y886D01*
X530Y886D02*
X536Y886D01*
X558Y886D02*
X564Y886D01*
X594Y886D02*
X601Y886D01*
X608Y886D02*
X614Y886D01*
X631Y886D02*
X637Y886D01*
X652Y886D02*
X662Y886D01*
X799Y886D02*
X806Y886D01*
X287Y885D02*
X294Y885D01*
X431Y885D02*
X455Y885D01*
X482Y885D02*
X513Y885D01*
X530Y885D02*
X536Y885D01*
X558Y885D02*
X564Y885D01*
X582Y885D02*
X614Y885D01*
X631Y885D02*
X637Y885D01*
X653Y885D02*
X663Y885D01*
X799Y885D02*
X806Y885D01*
X287Y884D02*
X294Y884D01*
X431Y884D02*
X455Y884D01*
X482Y884D02*
X512Y884D01*
X530Y884D02*
X536Y884D01*
X558Y884D02*
X564Y884D01*
X581Y884D02*
X614Y884D01*
X631Y884D02*
X637Y884D01*
X654Y884D02*
X664Y884D01*
X799Y884D02*
X806Y884D01*
X287Y883D02*
X294Y883D01*
X430Y883D02*
X454Y883D01*
X483Y883D02*
X511Y883D01*
X530Y883D02*
X536Y883D01*
X558Y883D02*
X564Y883D01*
X581Y883D02*
X614Y883D01*
X631Y883D02*
X637Y883D01*
X656Y883D02*
X664Y883D01*
X799Y883D02*
X806Y883D01*
X287Y882D02*
X294Y882D01*
X430Y882D02*
X453Y882D01*
X483Y882D02*
X511Y882D01*
X530Y882D02*
X536Y882D01*
X558Y882D02*
X564Y882D01*
X581Y882D02*
X614Y882D01*
X631Y882D02*
X637Y882D01*
X657Y882D02*
X664Y882D01*
X799Y882D02*
X806Y882D01*
X287Y881D02*
X294Y881D01*
X430Y881D02*
X452Y881D01*
X484Y881D02*
X510Y881D01*
X531Y881D02*
X536Y881D01*
X558Y881D02*
X564Y881D01*
X581Y881D02*
X614Y881D01*
X631Y881D02*
X637Y881D01*
X658Y881D02*
X664Y881D01*
X799Y881D02*
X806Y881D01*
X287Y880D02*
X294Y880D01*
X431Y880D02*
X450Y880D01*
X485Y880D02*
X496Y880D01*
X498Y880D02*
X509Y880D01*
X531Y880D02*
X536Y880D01*
X559Y880D02*
X563Y880D01*
X582Y880D02*
X613Y880D01*
X632Y880D02*
X636Y880D01*
X659Y880D02*
X664Y880D01*
X799Y880D02*
X806Y880D01*
X287Y879D02*
X294Y879D01*
X432Y879D02*
X447Y879D01*
X486Y879D02*
X494Y879D01*
X500Y879D02*
X508Y879D01*
X533Y879D02*
X534Y879D01*
X560Y879D02*
X562Y879D01*
X583Y879D02*
X612Y879D01*
X633Y879D02*
X635Y879D01*
X661Y879D02*
X662Y879D01*
X799Y879D02*
X806Y879D01*
X287Y878D02*
X294Y878D01*
X799Y878D02*
X806Y878D01*
X287Y877D02*
X294Y877D01*
X799Y877D02*
X806Y877D01*
X287Y876D02*
X294Y876D01*
X799Y876D02*
X806Y876D01*
X287Y826D02*
X294Y826D01*
X799Y826D02*
X806Y826D01*
X287Y825D02*
X294Y825D01*
X799Y825D02*
X806Y825D01*
X287Y824D02*
X294Y824D01*
X799Y824D02*
X806Y824D01*
X287Y823D02*
X294Y823D01*
X799Y823D02*
X806Y823D01*
X287Y822D02*
X294Y822D01*
X799Y822D02*
X806Y822D01*
X287Y821D02*
X294Y821D01*
X799Y821D02*
X806Y821D01*
X287Y771D02*
X294Y771D01*
X799Y771D02*
X806Y771D01*
X287Y770D02*
X294Y770D01*
X799Y770D02*
X806Y770D01*
X287Y769D02*
X294Y769D01*
X799Y769D02*
X806Y769D01*
X287Y768D02*
X294Y768D01*
X799Y768D02*
X806Y768D01*
X287Y767D02*
X294Y767D01*
X799Y767D02*
X806Y767D01*
X287Y766D02*
X294Y766D01*
X799Y766D02*
X806Y766D01*
X287Y715D02*
X294Y715D01*
X799Y715D02*
X806Y715D01*
X287Y714D02*
X294Y714D01*
X799Y714D02*
X806Y714D01*
X287Y713D02*
X294Y713D01*
X799Y713D02*
X806Y713D01*
X287Y712D02*
X294Y712D01*
X799Y712D02*
X806Y712D01*
X287Y711D02*
X294Y711D01*
X799Y711D02*
X806Y711D01*
X287Y660D02*
X294Y660D01*
X799Y660D02*
X806Y660D01*
X287Y659D02*
X294Y659D01*
X799Y659D02*
X806Y659D01*
X287Y658D02*
X294Y658D01*
X799Y658D02*
X806Y658D01*
X287Y657D02*
X294Y657D01*
X799Y657D02*
X806Y657D01*
X287Y656D02*
X294Y656D01*
X799Y656D02*
X806Y656D01*
X287Y605D02*
X294Y605D01*
X799Y605D02*
X806Y605D01*
X287Y604D02*
X294Y604D01*
X799Y604D02*
X806Y604D01*
X287Y603D02*
X294Y603D01*
X799Y603D02*
X806Y603D01*
X287Y602D02*
X294Y602D01*
X799Y602D02*
X806Y602D01*
X287Y601D02*
X294Y601D01*
X799Y601D02*
X806Y601D01*
X287Y600D02*
X294Y600D01*
X799Y600D02*
X806Y600D01*
X287Y550D02*
X294Y550D01*
X799Y550D02*
X806Y550D01*
X287Y549D02*
X294Y549D01*
X799Y549D02*
X806Y549D01*
X287Y548D02*
X294Y548D01*
X799Y548D02*
X806Y548D01*
X287Y547D02*
X294Y547D01*
X799Y547D02*
X806Y547D01*
X287Y546D02*
X294Y546D01*
X799Y546D02*
X806Y546D01*
X287Y545D02*
X294Y545D01*
X799Y545D02*
X806Y545D01*
X287Y495D02*
X294Y495D01*
X799Y495D02*
X806Y495D01*
X287Y494D02*
X294Y494D01*
X799Y494D02*
X806Y494D01*
X287Y493D02*
X294Y493D01*
X799Y493D02*
X806Y493D01*
X287Y492D02*
X294Y492D01*
X799Y492D02*
X806Y492D01*
X287Y491D02*
X294Y491D01*
X799Y491D02*
X806Y491D01*
X287Y490D02*
X294Y490D01*
X799Y490D02*
X806Y490D01*
X287Y440D02*
X294Y440D01*
X799Y440D02*
X806Y440D01*
X287Y439D02*
X294Y439D01*
X799Y439D02*
X806Y439D01*
X287Y438D02*
X294Y438D01*
X799Y438D02*
X806Y438D01*
X287Y437D02*
X294Y437D01*
X799Y437D02*
X806Y437D01*
X287Y436D02*
X294Y436D01*
X799Y436D02*
X806Y436D01*
X287Y435D02*
X294Y435D01*
X799Y435D02*
X806Y435D01*
X287Y434D02*
X294Y434D01*
X799Y434D02*
X806Y434D01*
X287Y433D02*
X294Y433D01*
X799Y433D02*
X806Y433D01*
X287Y432D02*
X294Y432D01*
X799Y432D02*
X806Y432D01*
X287Y431D02*
X294Y431D01*
X799Y431D02*
X806Y431D01*
X287Y430D02*
X294Y430D01*
X799Y430D02*
X806Y430D01*
X287Y429D02*
X294Y429D01*
X799Y429D02*
X806Y429D01*
X287Y428D02*
X294Y428D01*
X799Y428D02*
X806Y428D01*
X287Y427D02*
X294Y427D01*
X799Y427D02*
X806Y427D01*
X287Y426D02*
X294Y426D01*
X799Y426D02*
X806Y426D01*
X287Y425D02*
X294Y425D01*
X799Y425D02*
X806Y425D01*
X287Y424D02*
X294Y424D01*
X799Y424D02*
X806Y424D01*
X287Y423D02*
X294Y423D01*
X799Y423D02*
X806Y423D01*
X287Y422D02*
X294Y422D01*
X799Y422D02*
X806Y422D01*
X287Y421D02*
X294Y421D01*
X799Y421D02*
X806Y421D01*
X287Y420D02*
X294Y420D01*
X799Y420D02*
X806Y420D01*
X287Y419D02*
X294Y419D01*
X799Y419D02*
X806Y419D01*
X287Y418D02*
X294Y418D01*
X799Y418D02*
X806Y418D01*
X287Y417D02*
X294Y417D01*
X799Y417D02*
X806Y417D01*
X287Y416D02*
X294Y416D01*
X799Y416D02*
X806Y416D01*
X287Y415D02*
X294Y415D01*
X799Y415D02*
X806Y415D01*
X287Y414D02*
X294Y414D01*
X799Y414D02*
X806Y414D01*
X287Y413D02*
X294Y413D01*
X799Y413D02*
X806Y413D01*
X287Y412D02*
X294Y412D01*
X799Y412D02*
X806Y412D01*
X287Y411D02*
X294Y411D01*
X799Y411D02*
X806Y411D01*
X287Y410D02*
X294Y410D01*
X799Y410D02*
X806Y410D01*
X287Y409D02*
X294Y409D01*
X799Y409D02*
X806Y409D01*
X287Y408D02*
X294Y408D01*
X799Y408D02*
X806Y408D01*
X287Y407D02*
X294Y407D01*
X799Y407D02*
X806Y407D01*
X287Y406D02*
X294Y406D01*
X799Y406D02*
X806Y406D01*
X287Y405D02*
X294Y405D01*
X799Y405D02*
X806Y405D01*
X287Y404D02*
X294Y404D01*
X799Y404D02*
X806Y404D01*
X287Y403D02*
X294Y403D01*
X799Y403D02*
X806Y403D01*
X287Y402D02*
X294Y402D01*
X799Y402D02*
X806Y402D01*
X287Y401D02*
X294Y401D01*
X799Y401D02*
X806Y401D01*
X287Y400D02*
X294Y400D01*
X799Y400D02*
X806Y400D01*
X287Y399D02*
X294Y399D01*
X799Y399D02*
X806Y399D01*
X287Y398D02*
X294Y398D01*
X799Y398D02*
X806Y398D01*
X287Y397D02*
X294Y397D01*
X799Y397D02*
X806Y397D01*
X287Y396D02*
X294Y396D01*
X799Y396D02*
X806Y396D01*
X287Y395D02*
X294Y395D01*
X799Y395D02*
X806Y395D01*
X287Y394D02*
X294Y394D01*
X799Y394D02*
X806Y394D01*
X287Y393D02*
X294Y393D01*
X799Y393D02*
X806Y393D01*
X287Y392D02*
X294Y392D01*
X799Y392D02*
X806Y392D01*
X287Y391D02*
X294Y391D01*
X799Y391D02*
X806Y391D01*
X287Y390D02*
X294Y390D01*
X799Y390D02*
X806Y390D01*
X287Y389D02*
X294Y389D01*
X799Y389D02*
X806Y389D01*
X287Y388D02*
X294Y388D01*
X799Y388D02*
X806Y388D01*
X287Y387D02*
X294Y387D01*
X799Y387D02*
X806Y387D01*
X287Y386D02*
X294Y386D01*
X799Y386D02*
X806Y386D01*
X287Y385D02*
X294Y385D01*
X799Y385D02*
X806Y385D01*
X287Y384D02*
X294Y384D01*
X799Y384D02*
X806Y384D01*
X287Y383D02*
X294Y383D01*
X799Y383D02*
X806Y383D01*
X287Y382D02*
X294Y382D01*
X799Y382D02*
X806Y382D01*
X287Y381D02*
X294Y381D01*
X799Y381D02*
X806Y381D01*
X287Y380D02*
X294Y380D01*
X799Y380D02*
X806Y380D01*
X287Y379D02*
X294Y379D01*
X799Y379D02*
X806Y379D01*
X287Y378D02*
X294Y378D01*
X799Y378D02*
X806Y378D01*
X287Y377D02*
X294Y377D01*
X799Y377D02*
X806Y377D01*
X287Y376D02*
X294Y376D01*
X799Y376D02*
X806Y376D01*
X287Y375D02*
X294Y375D01*
X799Y375D02*
X806Y375D01*
X287Y374D02*
X294Y374D01*
X799Y374D02*
X806Y374D01*
X287Y373D02*
X294Y373D01*
X799Y373D02*
X806Y373D01*
X287Y372D02*
X294Y372D01*
X799Y372D02*
X806Y372D01*
X287Y371D02*
X294Y371D01*
X799Y371D02*
X806Y371D01*
X287Y370D02*
X328Y370D01*
X379Y370D02*
X383Y370D01*
X434Y370D02*
X438Y370D01*
X489Y370D02*
X494Y370D01*
X544Y370D02*
X549Y370D01*
X599Y370D02*
X604Y370D01*
X654Y370D02*
X659Y370D01*
X709Y370D02*
X714Y370D01*
X764Y370D02*
X806Y370D01*
X287Y369D02*
X328Y369D01*
X379Y369D02*
X383Y369D01*
X434Y369D02*
X438Y369D01*
X489Y369D02*
X494Y369D01*
X544Y369D02*
X549Y369D01*
X599Y369D02*
X604Y369D01*
X654Y369D02*
X659Y369D01*
X709Y369D02*
X714Y369D01*
X764Y369D02*
X806Y369D01*
X287Y368D02*
X328Y368D01*
X379Y368D02*
X383Y368D01*
X434Y368D02*
X438Y368D01*
X489Y368D02*
X494Y368D01*
X544Y368D02*
X549Y368D01*
X599Y368D02*
X604Y368D01*
X654Y368D02*
X659Y368D01*
X709Y368D02*
X714Y368D01*
X764Y368D02*
X806Y368D01*
X287Y367D02*
X328Y367D01*
X379Y367D02*
X383Y367D01*
X434Y367D02*
X438Y367D01*
X489Y367D02*
X494Y367D01*
X544Y367D02*
X549Y367D01*
X599Y367D02*
X604Y367D01*
X654Y367D02*
X659Y367D01*
X709Y367D02*
X714Y367D01*
X764Y367D02*
X806Y367D01*
X287Y366D02*
X328Y366D01*
X379Y366D02*
X383Y366D01*
X434Y366D02*
X438Y366D01*
X489Y366D02*
X494Y366D01*
X544Y366D02*
X549Y366D01*
X599Y366D02*
X604Y366D01*
X654Y366D02*
X659Y366D01*
X709Y366D02*
X714Y366D01*
X764Y366D02*
X806Y366D01*
X287Y365D02*
X328Y365D01*
X379Y365D02*
X383Y365D01*
X434Y365D02*
X438Y365D01*
X489Y365D02*
X494Y365D01*
X544Y365D02*
X549Y365D01*
X599Y365D02*
X604Y365D01*
X654Y365D02*
X659Y365D01*
X709Y365D02*
X714Y365D01*
X764Y365D02*
X806Y365D01*
X287Y364D02*
X328Y364D01*
X379Y364D02*
X383Y364D01*
X434Y364D02*
X438Y364D01*
X489Y364D02*
X494Y364D01*
X544Y364D02*
X549Y364D01*
X599Y364D02*
X604Y364D01*
X654Y364D02*
X659Y364D01*
X709Y364D02*
X714Y364D01*
X764Y364D02*
X806Y364D01*
X287Y363D02*
X328Y363D01*
X379Y363D02*
X383Y363D01*
X434Y363D02*
X438Y363D01*
X489Y363D02*
X494Y363D01*
X544Y363D02*
X549Y363D01*
X599Y363D02*
X604Y363D01*
X654Y363D02*
X659Y363D01*
X709Y363D02*
X714Y363D01*
X764Y363D02*
X805Y363D01*
D02*
G04 End of Silk1*
M02*